<?xml version="1.0" encoding="UTF-8" standalone="no"?>
<!-- Created with Inkscape (http://www.inkscape.org/) -->

<svg
   width="19.677036mm"
   height="23.000454mm"
   viewBox="0 0 19.677036 23.000454"
   version="1.1"
   id="svg1"
   xml:space="preserve"
   sodipodi:docname="ada-logo-white-one-color.svg"
   inkscape:version="1.4 (e7c3feb1, 2024-10-09)"
   xmlns:inkscape="http://www.inkscape.org/namespaces/inkscape"
   xmlns:sodipodi="http://sodipodi.sourceforge.net/DTD/sodipodi-0.dtd"
   xmlns="http://www.w3.org/2000/svg"
   xmlns:svg="http://www.w3.org/2000/svg"><sodipodi:namedview
     id="namedview1"
     pagecolor="#ffffff"
     bordercolor="#000000"
     borderopacity="0.25"
     inkscape:showpageshadow="2"
     inkscape:pageopacity="0.0"
     inkscape:pagecheckerboard="0"
     inkscape:deskcolor="#d1d1d1"
     inkscape:document-units="mm"
     inkscape:zoom="6.5642424"
     inkscape:cx="34.352784"
     inkscape:cy="54.38556"
     inkscape:window-width="1920"
     inkscape:window-height="1147"
     inkscape:window-x="1496"
     inkscape:window-y="25"
     inkscape:window-maximized="1"
     inkscape:current-layer="layer1" /><defs
     id="defs1" /><g
     id="layer1"
     transform="translate(33.539846,-28.169494)"><path
       id="path35"
       style="display:inline;stroke-width:0.352778;fill:#ffffff;fill-opacity:1"
       inkscape:label="frame"
       d="M -23.700653 30.101159 C -24.916082 30.101159 -26.077771 30.323021 -27.152639 30.72541 L -27.131968 30.746081 C -27.112668 30.762631 -27.093561 30.780554 -27.075641 30.799824 C -27.016381 30.861834 -26.972115 30.929191 -26.929397 30.996712 C -26.905977 31.033922 -26.882533 31.070949 -26.854983 31.106782 C -26.812263 31.164662 -26.757317 31.22116 -26.699437 31.276281 C -25.759616 30.946932 -24.749342 30.765201 -23.696519 30.765201 C -18.67357 30.765201 -14.601467 34.837304 -14.601467 39.860253 L -14.601467 42.847668 C -14.852271 43.256947 -15.286526 43.528763 -15.78124 43.528763 C -16.244261 43.528763 -16.655952 43.290189 -16.910887 42.923632 C -17.167205 43.290189 -17.578029 43.528763 -18.04105 43.528763 C -18.510961 43.528763 -18.927131 43.284852 -19.182066 42.908646 C -19.437004 43.284852 -19.85162 43.528763 -20.321531 43.528763 C -20.784552 43.528763 -21.195381 43.290189 -21.451695 42.923632 C -21.708009 43.290189 -22.118838 43.528763 -22.581859 43.528763 C -23.04488 43.528763 -23.45657 43.290189 -23.711505 42.923632 C -23.967819 43.290189 -24.378648 43.528763 -24.841669 43.528763 C -25.314334 43.528763 -25.733431 43.280718 -25.988369 42.900378 C -26.241928 43.280718 -26.660853 43.528763 -27.133519 43.528763 C -27.597919 43.528763 -28.008401 43.290189 -28.264716 42.923632 C -28.519654 43.290189 -28.930479 43.528763 -29.394879 43.528763 C -29.8579 43.528763 -30.268212 43.290189 -30.524526 42.923632 C -30.779465 43.290189 -31.19029 43.528763 -31.65469 43.528763 C -32.121846 43.528763 -32.535256 43.285885 -32.791571 42.913814 L -32.791571 39.860253 C -32.791571 37.153787 -31.607663 34.725684 -29.730776 33.059635 C -29.744566 33.033455 -29.757123 33.008476 -29.769533 32.979536 C -29.863233 32.781099 -30.020506 32.642089 -30.180361 32.538736 C -32.239151 34.342588 -33.539846 36.988593 -33.539846 39.940352 L -33.539846 51.16964 L -13.863011 51.16964 L -13.863011 39.940352 C -13.863011 34.506748 -18.267047 30.101159 -23.700653 30.101159 z M -29.350954 44.264636 C -29.051224 44.258287 -28.728254 44.362307 -28.511212 44.546789 C -28.345847 44.688729 -28.236984 44.832044 -28.114337 45.013944 C -27.969645 45.22754 -27.309733 46.467948 -27.160907 46.801432 C -26.823288 47.564865 -26.320306 48.730684 -26.156317 49.029719 C -26.077771 49.171656 -26.004732 49.292752 -25.862795 49.363032 C -25.653334 49.466385 -25.568065 49.449848 -25.492275 49.594543 C -25.489475 49.600083 -25.486807 49.605579 -25.484007 49.611079 C -25.336557 49.900466 -25.632491 50.161259 -25.88605 50.246699 C -26.503411 50.458916 -27.714705 50.37899 -27.932436 50.35832 C -28.232847 50.332136 -28.68209 50.318185 -28.883283 50.071516 C -28.972853 49.962648 -28.978538 49.764214 -28.909638 49.658105 C -28.839358 49.549242 -28.619041 49.47603 -28.522581 49.363032 C -28.320009 49.128763 -28.642473 48.992337 -28.894652 48.945487 C -29.243295 48.880677 -29.977617 48.867113 -30.356578 48.942903 C -30.510919 48.973221 -30.698193 49.076573 -30.702293 49.252962 C -30.705049 49.324618 -30.658537 49.390592 -30.597907 49.433312 C -30.39947 49.573869 -30.220323 49.551995 -30.172093 49.740787 C -30.132131 49.904773 -30.207921 50.100628 -30.333323 50.184688 C -30.665428 50.412066 -31.615929 50.39794 -31.876382 50.37589 C -32.190573 50.349706 -32.593132 50.256173 -32.671682 49.951627 C -32.706135 49.819335 -32.666343 49.665171 -32.565745 49.585241 C -32.436208 49.483267 -32.196088 49.455709 -32.058283 49.353731 C -31.990758 49.301369 -31.93168 49.200417 -31.8862 49.106717 C -31.49208 48.297808 -31.060584 47.243956 -30.615477 46.290352 C -30.450113 45.93344 -30.193784 45.271638 -30.160724 45.113163 C -30.06564 44.650143 -29.983304 44.340087 -29.477562 44.273937 C -29.436049 44.268425 -29.393773 44.265543 -29.350954 44.264636 z M -20.797988 44.350418 C -20.602457 44.340729 -20.589215 44.396929 -20.589215 44.753495 L -20.589215 48.900012 C -20.589215 48.970295 -20.572711 48.983041 -20.564411 49.023001 C -20.549252 49.107065 -20.510493 49.14806 -20.434703 49.1894 C -20.17012 49.332716 -20.056947 49.31239 -20.015607 49.5439 C -19.972886 49.775411 -20.109314 49.866188 -20.362873 50.013639 C -20.825894 50.283737 -21.514915 50.436526 -22.074396 50.371756 C -22.186018 50.359356 -22.331059 50.323865 -22.371019 50.242565 C -22.405479 50.169526 -22.41081 50.012258 -22.41081 49.922688 C -22.391516 49.851048 -22.474203 49.795736 -22.534833 49.838456 C -22.668501 49.892201 -22.949451 50.12096 -23.128595 50.21466 C -23.551653 50.435146 -24.269612 50.253418 -24.616876 50.042577 C -25.276955 49.641568 -25.696222 48.843683 -25.649372 48.029264 C -25.60252 47.235514 -25.199959 46.503603 -24.527476 46.121887 C -24.052055 45.85179 -23.393523 45.813553 -22.879515 45.984427 C -22.719661 46.036794 -22.507444 46.120853 -22.507444 46.120853 L -22.505894 45.668684 C -22.505894 45.599785 -22.507427 45.588743 -22.519847 45.557063 C -22.528137 45.533633 -22.540167 45.511768 -22.558087 45.492468 C -22.635257 45.415302 -22.835078 45.392905 -22.930158 45.336405 C -23.107927 45.231673 -23.019901 44.942629 -22.849026 44.818607 C -22.552745 44.603631 -21.380208 44.399336 -21.060504 44.373156 C -20.948538 44.363854 -20.863165 44.353648 -20.797988 44.350418 z M -17.533071 45.883658 C -17.113039 45.874591 -16.709348 45.923965 -16.417894 45.997863 C -16.109213 46.076408 -15.819652 46.268131 -15.618459 46.561653 C -15.578496 46.620909 -15.483247 46.798506 -15.463947 46.894966 C -15.451497 46.962491 -15.45021 46.977648 -15.44741 47.047928 L -15.44741 48.963574 C -15.44741 49.018691 -15.414684 49.068131 -15.363694 49.090181 C -15.009537 49.248656 -14.966811 49.272255 -14.937881 49.451399 C -14.891028 49.736652 -15.114268 49.918383 -15.417438 50.127844 C -15.744032 50.353876 -16.12127 50.463052 -16.526414 50.35832 C -16.624253 50.333516 -16.726406 50.28373 -16.800816 50.21621 C -16.978585 50.052221 -17.042145 49.882534 -17.199241 49.917004 C -17.330153 49.944567 -17.543579 50.145765 -17.730992 50.239465 C -18.096173 50.419989 -18.880278 50.35143 -19.219273 50.10614 C -20.007513 49.539766 -19.939814 48.491078 -19.13504 48.010143 C -18.5604 47.726268 -17.903416 47.642033 -17.273655 47.768814 L -17.272105 47.224662 C -17.272105 47.154381 -17.273497 47.139049 -17.284507 47.070149 C -17.325849 46.819346 -17.359097 46.618149 -17.616787 46.578189 C -17.886884 46.535468 -18.141821 46.912881 -18.282379 47.081001 C -18.522158 47.370365 -18.91197 47.577095 -19.239944 47.337316 C -19.487988 47.155417 -19.472832 46.795917 -19.322626 46.578189 C -18.978117 46.076928 -18.233125 45.898771 -17.533071 45.883658 z M -29.510635 46.630899 C -29.561512 46.629051 -29.612954 46.655187 -29.667731 46.712031 C -29.728363 46.775418 -29.918192 47.154036 -30.007762 47.39106 C -30.075283 47.572959 -30.155556 47.792069 -30.155556 47.792069 L -28.808869 47.795169 C -28.808869 47.795169 -29.065357 47.149901 -29.248635 46.861893 C -29.342514 46.714615 -29.425839 46.633981 -29.510635 46.630899 z M -22.874864 46.839155 C -22.957288 46.840012 -23.043329 46.862926 -23.121877 46.911502 C -23.437447 47.104426 -23.538216 47.421722 -23.574046 47.873718 C -23.615388 48.37946 -23.484129 49.291545 -22.921889 49.153743 C -22.504345 49.051769 -22.498843 48.412359 -22.483673 47.896972 C -22.478163 47.677862 -22.468866 47.145768 -22.548786 47.006587 C -22.610797 46.898068 -22.737491 46.837728 -22.874864 46.839155 z M -17.526353 48.361543 C -17.680674 48.368984 -17.840203 48.464377 -17.900491 48.569282 C -18.030027 48.795278 -18.002638 49.227986 -17.753213 49.354764 C -17.507923 49.480166 -17.339804 49.324792 -17.302594 49.089147 C -17.276394 48.918272 -17.290034 48.616307 -17.301044 48.459212 C -17.305178 48.404092 -17.445554 48.365527 -17.460724 48.364127 C -17.482256 48.361371 -17.504307 48.36048 -17.526353 48.361543 z " /><path
       fill-rule="evenodd"
       fill="#182c64"
       fill-opacity="1"
       d="m -19.598241,41.133546 c 0.07028,0.132292 0.133668,0.151585 0.07717,0.223245 -0.06752,0.08819 -0.192927,-0.08957 -0.278363,-0.208086 -0.08957,-0.125402 -0.165364,-0.276983 -0.201196,-0.412034 -0.0193,-0.07028 0.02067,-0.125402 0.0813,-0.104729 0.139181,0.04685 0.242535,0.350023 0.321084,0.501604 m -3.363792,-0.760677 0.04548,-0.0028 -0.0041,-0.05236 c -0.0014,-0.0248 -0.0028,-0.02893 -0.0096,-0.0441 -0.0303,-0.06753 -0.09371,-0.103361 -0.125402,-0.05788 -0.03168,0.04685 -0.02755,0.08819 0.0193,0.135047 0.0096,0.0096 0.02067,0.01655 0.03858,0.02067 0.01242,0.0028 0.01655,0.0028 0.03583,0.0014 m -0.39963,-0.199814 0.07441,-0.0055 c 0,0 0.0014,-0.04272 -0.0055,-0.07028 -0.01101,-0.04548 -0.158475,-0.107488 -0.226,-0.125402 -0.02618,-0.0069 -0.04547,-0.0055 -0.05374,0.0041 -0.01792,0.02205 0.05374,0.173634 0.15296,0.195683 0.01792,0.0041 0.02342,0.0041 0.05788,0.0014 m 1.712902,-0.610465 c 0.01517,0.03306 -0.0193,0.146072 -0.02205,0.152961 -0.0248,0.05926 -0.08819,0.09233 -0.135047,0.05926 -0.0193,-0.01379 -0.03721,-0.03305 -0.04961,-0.0565 -0.05237,-0.09233 -0.03168,-0.235642 0.0565,-0.272849 0.05374,-0.02205 0.111619,0.03306 0.150206,0.117132 m -2.517677,0.136427 c -0.0041,0.03996 0.03447,0.09508 0.05374,0.119888 0.06201,0.08406 0.08819,0.110243 0.195682,0.118512 0.05237,0.0041 0.198437,-0.01517 0.165364,-0.08544 -0.01101,-0.02342 -0.04134,-0.0441 -0.07304,-0.06201 -0.05788,-0.03168 -0.122647,-0.05374 -0.16812,-0.09371 -0.03583,-0.03168 -0.06063,-0.07441 -0.09371,-0.09095 -0.07028,-0.03583 -0.07304,0.0303 -0.07993,0.09371 m -3.326585,0.217727 c -0.01242,0.0041 -0.03721,0.0096 -0.0565,0.0041 -0.04548,-0.01379 -0.06477,-0.09646 -0.09784,-0.107485 -0.01101,-0.0041 -0.0248,0.0014 -0.03996,0.0083 -0.03583,0.01792 -0.08268,0.04823 -0.128157,0.06201 -0.07579,0.02205 -0.141936,0.01101 -0.09508,0.08682 0.09784,0.157095 0.476801,0.14194 0.595313,0.05512 0.137802,-0.100594 0.246669,-0.443727 0.268718,-0.636654 0.0041,-0.03306 -0.0014,-0.04961 -0.04272,-0.02893 -0.03996,0.0193 -0.106108,0.115757 -0.132291,0.157099 -0.07166,0.118508 -0.119888,0.293522 -0.223242,0.370692 -0.01517,0.01242 -0.03447,0.0248 -0.04823,0.02893 m 2.178678,-0.923286 c 0.05788,0.07855 0.566374,0.534681 0.687642,0.538812 0.04134,0.0014 0.08957,-0.0069 0.08957,-0.0069 0,0 -0.0055,-0.03858 -0.01517,-0.06614 -0.01379,-0.03858 -0.06064,-0.08268 -0.101974,-0.110243 -0.114377,-0.07855 -0.384475,-0.341754 -0.30317,-0.26596 -0.08544,-0.07855 -0.181899,-0.151585 -0.278363,-0.206706 0,0 0.01655,0.0083 -0.03583,-0.02067 -0.05099,-0.02893 -0.108867,0.0248 -0.08131,0.07579 z m -2.819463,0.78824 c -0.100598,-0.06477 -0.312815,-0.187414 -0.279742,-0.274232 0.01379,-0.03721 0.04961,-0.07717 0.0303,-0.115754 -0.0028,-0.0069 -0.0083,-0.0069 -0.05375,-0.0028 -0.206707,0.01792 -0.260449,0.01655 -0.359668,-0.09784 -0.01792,-0.02067 -0.03447,-0.03858 -0.03447,-0.06063 0,-0.04134 0.06201,-0.09922 0.08268,-0.150205 0.0193,-0.04548 -0.03168,-0.06201 -0.09922,-0.06201 -0.0041,0 -0.0096,0 -0.01379,0 -0.107487,0.0069 -0.117132,0.03168 -0.213596,-0.03168 -0.05926,-0.03859 -0.112998,-0.09922 -0.111622,-0.159854 0.0014,-0.01655 0.0041,-0.02067 0.03721,-0.05099 l 0.15434,-0.141937 h 0.0014 c 0.07441,-0.07029 0.0441,-0.10336 -0.02755,-0.08545 -0.02893,0.0069 -0.06615,0.01517 -0.10473,0.02205 -0.02618,0.0055 -0.05237,0.0096 -0.07579,0.01242 -0.09784,0.01242 -0.07992,0.02893 -0.128157,-0.05237 -0.02893,-0.05099 -0.07304,-0.121268 -0.101974,-0.157096 -0.0096,-0.01101 -0.07717,-0.05237 -0.09508,-0.02618 -0.0041,0.0069 -0.0014,0.01792 0.0014,0.02755 0.0014,0.01101 0.0028,0.01655 0.01379,0.06063 0.05788,0.226 0.16123,0.421682 0.329349,0.62563 0.04823,0.0565 0.09784,0.111623 0.140561,0.169499 0.08268,0.114378 0.09784,0.16123 0.224621,0.261829 0.04823,0.03996 0.09922,0.07166 0.151581,0.111618 0.08957,0.06891 0.474045,0.282498 0.505743,0.281122 0.0028,0 0.0069,0 0.0096,0 0.05099,0.0096 0.08268,-0.05237 0.04272,-0.08406 -0.0055,-0.0055 -0.01517,-0.01101 -0.02618,-0.0193 m 1.176846,-1.72944 -0.129537,0.0096 -0.0055,-0.0689 c -0.0028,-0.03168 -0.0014,-0.03721 0.01379,-0.05788 0.03859,-0.0565 0.130916,-0.07442 0.217731,-0.04823 0.07166,0.02067 0.06339,0.08406 0.0069,0.132292 -0.0096,0.0083 -0.02205,0.01655 -0.03447,0.02067 -0.01655,0.0069 -0.0248,0.0083 -0.0689,0.01242 m 3.429935,0.195682 -0.0014,-0.01655 -0.01655,0.0014 0.0303,-0.658703 0.01655,-0.0014 -0.0014,-0.01655 0.05099,-0.0041 c 0,0 0,0.01101 0.0014,0.01655 0.0014,0.0055 0.0069,0.0055 0.0096,0.0055 0.01242,0.0041 0.01379,0.03306 0.01242,0.05788 -0.0041,0.06477 -0.02755,0.112998 -0.03721,0.16812 -0.02205,0.126781 0.02205,0.194306 0.05788,0.307305 0.0193,0.0565 0.0041,0.06201 -0.04134,0.110243 -0.01101,0.01101 -0.0193,0.02342 -0.04134,0.02755 -0.01655,0.0028 -0.03996,0.0028 -0.03996,0.0028 m -5.735387,-0.898476 c 0.04272,0 0.09095,-0.0014 0.130912,-0.0014 0.07855,0 0.130916,0.0014 0.183279,0.0083 0.0083,0.0014 0.02205,0.0028 0.03447,0.0055 0.02205,0.0028 0.118513,-0.01101 0.100599,-0.06339 -0.0055,-0.01517 -0.01792,-0.02755 -0.0248,-0.0303 -0.112998,-0.04961 -0.279742,-0.0069 -0.243914,-0.0937 0.0028,-0.0069 0.01517,-0.0248 0.03583,-0.03306 0.01101,-0.0055 0.01655,-0.0069 0.06063,-0.01792 l 0.257693,-0.06064 c 0.0441,-0.01101 0.04961,-0.01242 0.05512,-0.01792 0.02067,-0.01792 0.01792,-0.0565 0.01379,-0.06201 -0.01242,-0.01517 -0.07992,-0.0028 -0.139181,0.0069 -0.275608,0.04272 -0.290766,0.01655 -0.525032,0.118512 -0.172258,0.07579 -0.165365,0.111619 -0.276987,0.341754 -0.07717,0.16123 -0.16123,0.323839 -0.09371,0.511253 0.01242,0.03168 0.03997,0.08544 0.07993,0.06477 0.02067,-0.01101 0.03858,-0.06063 0.04547,-0.08544 0.03168,-0.111619 0.02342,-0.24667 0.05512,-0.355533 0.04961,-0.165365 0.107488,-0.234266 0.250804,-0.235645 m 1.765268,-0.908128 c 0.02893,0.06339 -0.03168,0.249425 -0.03583,0.274232 -0.0028,0.01517 -0.0028,0.02755 0.0028,0.03306 0.03168,0.03858 0.0813,-0.0565 0.09371,-0.08957 0.0441,-0.111622 0.0689,-0.179144 0.03583,-0.267338 -0.04685,-0.125402 -0.263204,-0.449241 -0.401009,-0.591178 -0.0248,-0.0248 -0.0689,-0.05512 -0.09509,-0.02618 -0.01792,0.02205 0.03996,0.111619 0.07166,0.143316 0.03583,0.03583 0.07992,0.0565 0.108864,0.08957 0.03447,0.04272 0.04548,0.106109 0.07303,0.172254 0.03996,0.09371 0.114378,0.194307 0.146072,0.261829 m 4.661905,-1.259526 c -0.03306,0.02342 -0.08131,0.0014 -0.08406,-0.03859 l -0.0028,-0.03858 c -0.0014,-0.02618 0,-0.03306 0.01379,-0.05237 0.0303,-0.04272 0.06201,-0.06063 0.101974,-0.04547 0.09095,0.03305 -0.01517,0.162606 -0.0096,0.155716 -0.01101,0.01242 -0.01101,0.01379 -0.0193,0.0193 m -5.49286,-0.259076 c -0.0193,0.03997 0.04134,0.168123 0.05374,0.191547 0.0248,0.04686 0.06339,0.100599 0.08957,0.152965 0.05236,0.101974 0.08406,0.24391 0.179144,0.289387 0.01792,0.0083 0.03306,0.0055 0.04134,-0.0055 0.01101,-0.01655 -0.14745,-0.443728 -0.195682,-0.527791 -0.02755,-0.04685 -0.0565,-0.100595 -0.09508,-0.110243 -0.0248,-0.0069 -0.06477,-0.0069 -0.07304,0.0096 m -0.974273,-1.489654 c 0.0193,0.0441 0.05099,0.06615 0.07992,0.09508 0.03583,0.03721 0.06752,0.08406 0.0937,0.137802 0.06477,0.135051 0.09371,0.312815 0.163989,0.425817 0.0193,0.03168 0.04272,0.05788 0.06201,0.08544 0.01517,0.02205 0.02893,0.04548 0.05788,0.04961 0.02205,0.0014 0.05237,-0.0069 0.05237,-0.0069 0,0 -0.01655,-0.101978 -0.03721,-0.192927 -0.05374,-0.246669 -0.210841,-0.522277 -0.17501,-0.467156 -0.03859,-0.05926 -0.206706,-0.217727 -0.253559,-0.245289 -0.03168,-0.01792 -0.06615,0.0096 -0.06064,0.04961 l 0.0028,0.01792 c 0.0014,0.01655 0.0069,0.03447 0.01379,0.05099 m -0.48507,-0.968763 c 0,0 0.294901,0.08268 0.343133,0.09646 0.05926,0.01655 0.121267,-0.01101 0.148826,-0.06477 0.03447,-0.0689 0.0441,-0.100598 0,-0.144696 -0.02205,-0.02205 -0.04685,-0.02618 -0.104729,-0.0083 -0.03721,0.01101 -0.0689,0.0303 -0.103353,0.03996 -0.03168,0.0096 -0.06477,0.01101 -0.101974,0.0083 -0.07166,-0.0055 -0.224621,-0.04134 -0.252183,0.0028 -0.0083,0.01242 -0.0055,0.03721 0.01517,0.05099 0.0055,0.0041 0.01101,0.0069 0.05512,0.0193 m -0.687642,-0.235641 c 0.0193,0.0028 0.05926,0.0083 0.07993,-0.0069 0.01517,-0.0096 -0.06752,-0.297657 -0.106108,-0.369316 -0.0248,-0.04823 -0.05375,-0.07166 -0.118513,-0.03996 -0.08957,0.04272 -0.07717,0.203951 -0.03859,0.288011 0.0248,0.05099 0.09646,0.114378 0.183278,0.128157 m -0.130912,-0.614605 0.06064,-0.0041 c 0,0 -0.0014,-0.04272 -0.0069,-0.07855 -0.0096,-0.0565 -0.06752,-0.144692 -0.107488,-0.213593 -0.02342,-0.03859 -0.02755,-0.04272 -0.04685,-0.04134 l -0.0193,0.0014 c -0.0193,0.0014 -0.02342,0.0041 -0.03721,0.02893 -0.05237,0.08957 -0.0014,0.187413 0.07028,0.264583 0.01101,0.01242 0.02342,0.02342 0.0372,0.03168 0.01792,0.01242 0.02342,0.01242 0.04961,0.01101 m 0.478183,-0.76067 -0.348643,-0.16812 c -0.03996,-0.02067 -0.04547,-0.02342 -0.05512,-0.02893 -0.05099,-0.03447 -0.07717,-0.157099 -0.07304,-0.187413 0.01101,-0.07028 0.05788,-0.101977 0.117133,-0.113002 0.03859,-0.0055 0.32246,0.07166 0.354157,0.09646 0.03858,0.03168 0.06477,0.07028 0.108863,0.08957 0.05788,0.02893 0.354158,0.0303 0.318329,0.181899 -0.02205,0.09371 -0.163988,0.151585 -0.243914,0.166744 -0.03306,0.0055 -0.07166,0.0083 -0.108863,-0.0055 -0.02067,-0.0083 -0.02755,-0.01101 -0.06891,-0.03168 m 0.694531,-0.522277 c 0.0041,0.04548 -0.03305,0.08544 -0.07992,0.08268 h -0.0248 c -0.0083,0 -0.01517,-0.0014 -0.0248,-0.0028 -0.103353,-0.01242 -0.232889,-0.190169 -0.263203,-0.312815 -0.01655,-0.06615 0.05512,-0.119888 0.117132,-0.08957 0.03858,0.01792 0.106109,0.07579 0.148827,0.128157 0.05374,0.06753 0.125402,0.183279 0.124026,0.177769 0.0055,0.03583 0.0014,0.01101 0.0028,0.01655 m -0.567753,-0.147451 c 0,0.02618 -0.02755,0.04685 -0.05512,0.03721 l -0.04685,-0.01654 c -0.01101,-0.0055 -0.02067,-0.01242 -0.03306,-0.01792 -0.01517,-0.0096 -0.03447,-0.01517 -0.04961,-0.02618 -0.01242,-0.0083 -0.01792,-0.01379 -0.0248,-0.03168 -0.02342,-0.05375 0.0303,-0.107488 0.08682,-0.08544 0.04547,0.01655 0.121268,0.106108 0.115754,0.08957 0.0083,0.02893 0.0069,0.03583 0.0069,0.05099 m -0.509873,-1.467612 c 0,0 -0.0014,-0.02342 -0.0041,-0.04685 -0.0014,-0.02893 0.02067,-0.05375 0.04961,-0.05512 0.04134,-0.0041 0.04685,-0.0041 0.04685,-0.0041 0,0 0.0041,0.03305 0.0055,0.05512 0,0.0248 -0.01655,0.04272 -0.04134,0.04685 -0.02205,0.0028 -0.0565,0.0041 -0.0565,0.0041 m 0.751032,0.09784 c 0.07304,0.05512 0.25218,0.158475 0.301791,0.260452 0.04134,0.08406 -0.02342,0.136423 -0.118512,0.128157 -0.07855,-0.0069 -0.199817,-0.09095 -0.246669,-0.121267 -0.136426,-0.08682 -0.391361,-0.289391 -0.423058,-0.336243 -0.0441,-0.06477 -0.06201,-0.119888 -0.03447,-0.197058 0.04823,-0.133671 0.205328,-0.01517 0.279742,0.05926 0.06753,0.06752 0.151586,0.15985 0.208086,0.188789 0.01242,0.0069 0.0248,0.01242 0.03306,0.01792 m 1.077623,4.227823 0.332108,0.03306 c 0.0441,0.0041 0.04961,0.0069 0.05374,0.02755 0.0041,0.01655 0.0069,0.0303 0.0014,0.04823 -0.01379,0.04961 -0.224621,0.213596 -0.289387,0.281118 l -0.02755,0.02755 c -0.02755,0.02618 -0.0055,0.07166 0.03306,0.0689 0.02067,-0.0014 0.199817,-0.01517 0.199817,-0.01517 0.01655,-0.0014 0.02755,-0.0028 0.07992,-0.0083 0.04685,-0.0055 0.08406,0.03997 0.06752,0.08268 -0.0069,0.01517 -0.01517,0.02893 -0.0248,0.03858 -0.04134,0.04548 -0.140561,0.09095 -0.190172,0.121267 l -0.01242,0.0083 c -0.03721,0.02205 -0.01655,0.07717 0.02618,0.07166 0.02893,-0.0041 0.213597,-0.02618 0.290767,-0.03583 0.0193,-0.0028 0.03721,0.01242 0.03859,0.03168 0.0014,0.01655 0.0014,0.02618 0.0014,0.03583 -0.0028,0.0303 -0.02067,0.04685 -0.04548,0.06339 -0.114377,0.07028 -0.294901,0.165364 -0.170878,0.246669 0.01517,0.0096 0.02205,0.01101 0.06752,0.0069 l 0.157095,-0.01242 c 0,0 0.0083,0.03168 0.0041,0.06614 -0.0028,0.04134 -0.02205,0.08819 -0.03858,0.122644 -0.01379,0.0248 0.0096,0.05374 0.03858,0.04685 0.09371,-0.0193 0.09646,-0.04134 0.143316,-0.0565 0.06477,-0.02067 0.21911,-0.02618 0.21911,-0.02618 0,0 0.0069,0.04823 0.0055,0.07855 0,0.02618 -0.0083,0.03996 -0.02067,0.05374 -0.05237,0.06201 -0.144696,0.141937 -0.04548,0.159851 0.103353,0.0193 0.202572,-0.0014 0.192927,0.09509 -0.0041,0.04961 -0.01379,0.101973 -0.03859,0.147447 -0.02893,0.0565 -0.07992,0.101977 -0.110243,0.155719 -0.02893,0.04961 0.01792,0.108864 0.07441,0.09371 0.140561,-0.03583 0.228756,-0.106113 0.194303,0.0441 -0.01242,0.05788 -0.03306,0.08682 -0.03721,0.133667 -0.0041,0.05926 0.05788,0.103354 0.112998,0.07855 0.09095,-0.03859 0.106109,-0.04548 0.124026,-0.05375 0.05374,-0.0248 0.117133,0.01655 0.114374,0.07441 -0.0028,0.06064 -0.02067,0.398254 -0.02067,0.398254 -0.0014,0.0441 -0.0014,0.04961 0.0041,0.0565 0.02205,0.02618 0.08406,0.02755 0.09922,0.03583 0.0248,0.01379 0.03997,0.04547 0.04686,0.07579 0.0193,0.07166 0.01379,0.09371 0.09646,0.0689 0.09233,-0.02755 0.432706,-0.169499 0.38585,-0.278363 -0.01376,-0.0303 -0.04685,-0.06202 -0.05787,-0.09096 -0.0248,-0.06339 0.05099,-0.253559 0.08406,-0.303167 0.01792,-0.02342 0.03859,-0.04961 0.05926,-0.07304 0.04548,-0.05099 0.117133,-0.07442 0.186037,-0.05788 0.09646,0.02205 0.248046,0.05788 0.248046,0.05788 l -0.03447,-0.210841 0.01517,-0.06615 c 0.0069,-0.02893 0.01242,-0.03168 0.05788,-0.02893 0.248049,0.0193 0.537436,-0.05374 0.680752,-0.241156 0.01242,-0.01655 0.02342,-0.03306 0.0303,-0.05099 0.04685,-0.124023 0.0014,-0.184655 0.09784,-0.170875 0.0882,0.01242 0.224621,0.07579 0.337623,0.106108 0.252179,0.06477 0.709686,-0.03168 0.924662,-0.144695 0.07992,-0.04272 0.150206,-0.09508 0.225996,-0.132292 0.07855,-0.03996 0.445107,-0.170875 0.501608,-0.05374 0.0055,0.0083 0.0069,0.0193 0.0028,0.02893 -0.01101,0.03447 -0.07717,0.07028 -0.09233,0.110243 -0.03168,0.08268 0.111623,0.08682 0.181903,0.07304 0.07304,-0.01379 0.111619,-0.05374 0.111619,-0.148827 0.0014,-0.03583 0.0041,-0.03996 0.03583,-0.04686 0.08131,-0.01517 0.183282,0.0248 0.254938,0.04272 0.08819,0.02067 0.208083,0.02893 0.301791,0.01792 0.192924,-0.02342 0.374827,-0.09233 0.49058,-0.0303 0.01517,0.0096 0.02205,0.01655 0.02067,0.03721 0,0.0083 -0.0041,0.01242 -0.04134,0.0372 -0.05926,0.03997 -0.118512,0.07855 -0.184658,0.106112 -0.07717,0.03168 -0.163985,0.04823 -0.2384,0.07579 -0.224621,0.08406 -0.728983,0.434083 -0.853006,0.56775 -0.0303,0.03306 -0.03447,0.03859 -0.03447,0.0565 -0.0014,0.01379 -0.0014,0.02893 0.0055,0.03996 0.01379,0.02893 0.06063,0.03996 0.08131,0.06064 0.06339,0.06615 -0.07579,0.220486 -0.139182,0.234266 -0.06615,0.01517 -0.150205,-0.03305 -0.210841,-0.01655 -0.04272,0.01101 -0.07441,0.05788 -0.124022,0.08268 -0.03447,0.0193 -0.07855,0.02618 -0.115757,0.04272 -0.07717,0.03305 -0.33624,0.259069 -0.370692,0.31557 -0.0303,0.05099 -0.04134,0.114377 -0.07855,0.162609 -0.04961,0.06201 -0.144696,0.09646 -0.154341,0.137802 -0.01242,0.05788 0.0937,0.09233 0.172255,0.08268 0.07304,-0.01101 0.135047,-0.05512 0.263204,-0.07028 0.03168,-0.0028 0.06752,-0.0055 0.06752,-0.0055 0,0 0.0041,0.03583 0.0055,0.06615 0.0014,0.05237 -0.04548,0.163986 -0.07441,0.235645 -0.0096,0.0248 -0.06064,0.610472 -0.01517,0.734494 0.0069,0.0193 0.01655,0.03721 0.02893,0.05237 0.03583,0.04548 0.09509,0.08544 0.119898,0.133674 0.03858,0.0689 -0.01101,0.689018 -0.01792,0.712445 -0.01792,0.06477 -0.07855,0.128158 -0.140561,0.110244 -0.112998,-0.03447 -0.187413,-0.24667 -0.208086,-0.354158 -0.03306,-0.172254 -0.07166,-0.46302 -0.07166,-0.46302 0,0 -0.02755,-0.0014 -0.03996,0.0028 -0.0069,0.0028 -0.0083,0.0083 -0.01242,0.01242 -0.0041,0.0055 -0.0055,0.01101 -0.0096,0.05512 l -0.0689,0.581533 c -0.0055,0.0441 -0.0069,0.05237 -0.01101,0.07855 -0.01242,0.06339 -0.04548,0.08682 -0.111622,0.0937 -0.02067,0.0028 -0.04961,0.0041 -0.04961,0.0041 0,0 -0.01101,-0.09922 -0.01517,-0.181899 -0.0014,-0.03447 0.02618,-0.38172 0.06891,-0.494718 0.01655,-0.0441 0.0441,-0.08406 0.04961,-0.124023 0.0055,-0.04548 -0.01517,-0.09371 -0.01101,-0.136426 0.0041,-0.03858 0.02755,-0.07304 0.04134,-0.115753 0.04134,-0.132292 0.0303,-0.307305 -0.0882,-0.33073 -0.03859,-0.0069 -0.07028,0.0069 -0.104732,0.03306 -0.202569,0.157095 -0.176389,0.252179 -0.373447,0.283873 -0.07304,0.01242 -0.107488,-0.01101 -0.07855,-0.09646 0.0248,-0.06891 0.110243,-0.150209 0.190172,-0.221866 0.03306,-0.02893 0.03721,-0.03447 0.03721,-0.05237 0.0055,-0.14745 -0.282501,-0.100595 -0.3955,-0.07028 -0.101974,0.02618 -0.144691,0.05788 -0.246669,0.121267 -0.01517,0.0096 -0.03168,0.02067 -0.05099,0.02618 -0.0248,0.0083 -0.03168,0.0096 -0.07717,0.01792 -0.128157,0.02343 -0.358288,0.06891 -0.389985,0.05788 -0.0565,-0.02342 -0.07441,-0.06753 -0.121268,-0.0565 -0.0303,0.0069 -0.139181,0.126777 -0.198437,0.203947 -0.03168,0.04272 -0.129533,0.111623 -0.169499,0.119892 -0.07166,0.01379 -0.179144,0.01379 -0.179144,0.01379 l -0.04961,-0.177769 c -0.01242,-0.04272 -0.01517,-0.04823 -0.02755,-0.04823 -0.08131,-0.0028 -0.09371,0.08544 -0.07579,0.148829 0.01655,0.05512 0.05788,0.158475 0.04961,0.188793 -0.0248,0.09508 -0.283877,0.169496 -0.363802,0.15434 -0.02618,-0.0055 -0.04272,-0.01792 -0.06615,-0.0441 -0.04961,-0.0565 -0.130912,-0.176389 -0.130912,-0.176389 0,0 -0.14883,0.09784 -0.241159,0.163985 -0.05788,0.03996 -0.107488,0.09922 -0.107488,0.125402 -0.0014,0.04961 0.04823,0.111619 0.04823,0.177765 -0.0014,0.06753 -0.110243,0.243914 -0.16123,0.30455 -0.09095,0.107484 -0.237021,0.194303 -0.355533,0.299032 -0.195683,0.169499 -0.318326,0.388606 -0.07166,0.472669 0.07993,0.02755 0.110243,0.02755 0.184658,-0.02205 0.133671,-0.08819 0.301791,-0.260452 0.428572,-0.319705 0.06201,-0.0303 0.126778,-0.04548 0.179144,-0.07993 0.09784,-0.06477 0.112998,-0.122644 0.223242,-0.165365 0.01242,-0.0041 0.06201,-0.02205 0.06614,-0.01379 0.0028,0.0041 -0.0014,0.01242 0.0014,0.01655 0.0028,0.0028 0.0069,0.0041 0.01101,0.0069 0.0083,0.0069 0.0069,0.02755 0.0055,0.0441 -0.0028,0.02343 -0.0055,0.03996 -0.0055,0.06477 -0.0014,0.06339 0.01242,0.179144 0.01242,0.179144 0,0 0.03447,0.0028 0.0565,-0.0055 0.02893,-0.0096 0.0441,-0.05099 0.05925,-0.07441 0.0041,-0.0055 0.0083,-0.01101 0.02067,-0.01379 0.0096,-0.0014 0.0248,-0.0014 0.0248,-0.0014 0,0 0.0055,0.05512 0.0096,0.104733 0.0055,0.09646 -0.02067,0.348643 -0.0441,0.40652 -0.01379,0.03858 -0.03306,0.07717 -0.03996,0.118512 -0.0069,0.03583 -0.0083,0.07579 -0.0028,0.08268 0.04548,0.0441 0.183282,-0.08681 0.217731,-0.132291 0.04272,-0.05512 0.08268,-0.159851 0.106109,-0.24529 0.04134,-0.15434 0.107487,-0.381716 0.148829,-0.456131 0.05788,-0.100598 0.146072,-0.220486 0.146072,-0.220486 0,0 0.09233,0.02893 0.162609,0.06615 0.132292,0.07166 0.203948,0.180523 0.268718,0.192927 0.02342,0.0041 0.110243,0.0055 0.117133,-0.0014 0.03305,-0.02618 -0.03721,-0.124027 -0.07166,-0.158475 -0.152961,-0.15572 -0.370692,-0.250804 -0.270094,-0.423058 0.0565,-0.09784 0.194303,-0.163989 0.286632,-0.152965 0.101974,0.01242 0.129537,0.03721 0.220486,0.01517 0.08268,-0.0193 0.265959,-0.09922 0.31695,0.0041 0.02067,0.04134 -0.02755,0.113002 -0.04548,0.172258 -0.0028,0.01517 -0.0041,0.02755 -0.0041,0.04961 0.0014,0.02067 0.0041,0.04961 0.0041,0.04961 0,0 0.107488,-0.0248 0.216352,-0.03306 0.115757,-0.0083 0.23289,0.0014 0.23289,0.0014 0,0 0.0083,-0.175014 0.03168,-0.293526 0.01242,-0.06752 0.03721,-0.17363 0.0689,-0.186034 0.02893,-0.0096 0.09922,-0.01517 0.09922,-0.01517 0,0 0.0069,0.06753 0.01101,0.130912 0.0069,0.115757 -0.03721,0.511253 -0.06339,0.766191 -0.0055,0.0441 -0.0041,0.05099 0.0055,0.06201 0.02618,0.02893 0.06752,0.03859 0.111623,0.03721 0.07166,0 0.133671,-0.03168 0.166744,-0.01242 0.03447,0.0193 0.04134,0.08544 0.08819,0.141937 0.0096,0.01101 0.02205,0.02342 0.03583,0.03168 0.0193,0.01101 0.02618,0.01242 0.07166,0.0083 l 0.206707,-0.01517 0.01792,0.217731 c 0.0028,0.0441 0.0055,0.04961 0.01792,0.06339 0.0096,0.01101 0.02067,0.02067 0.03306,0.02618 0.0303,0.0083 0.07028,-0.02067 0.108864,-0.02618 0.04686,-0.0055 0.103353,0.02342 0.128161,0.0565 0.04547,0.06202 0.06063,0.181903 0.128157,0.15434 0.08406,-0.03306 0.08819,-0.09508 0.144692,-0.07717 0.0248,0.0083 0.05237,0.03168 0.07579,0.06063 0.09095,0.107488 0.139181,0.209462 0.263204,0.159851 0.03168,-0.01242 0.04823,-0.03858 0.06477,-0.07028 0.01655,-0.03583 0.143316,-0.679376 0.09646,-0.881944 -0.01379,-0.05788 -0.06201,-0.176389 -0.0937,-0.214976 -0.0248,-0.0303 -0.05512,-0.04548 -0.07303,-0.07579 -0.02618,-0.04548 -0.01242,-0.253559 0.04272,-0.311439 0.02755,-0.0303 0.118513,-0.04961 0.154341,-0.0372 0.02755,0.0096 0.04823,0.03583 0.07028,0.06477 0.09508,0.121267 0.101974,0.124022 0.23151,0.183278 0.146072,0.06753 0.165365,0.104733 0.152961,0.226 -0.0193,0.198438 -0.05512,0.494715 -0.0689,0.712445 -0.0041,0.06063 -0.0096,0.121268 -0.03721,0.166741 -0.05512,0.09233 -0.17501,0.157099 -0.141937,0.227376 0.01242,0.02618 0.0441,0.04548 0.06615,0.09095 0.01101,0.02067 0.0193,0.04823 0.02618,0.07441 0.01101,0.04686 0.0565,0.07442 0.103354,0.06615 0.06201,-0.01101 0.09508,-0.01517 0.114374,-0.01242 0.02618,0.0041 0.06064,0.04961 0.07028,0.103354 0.0083,0.04134 0.0083,0.104732 0.0083,0.104732 0,0 0.0441,-0.0014 0.07304,-0.0055 0.03305,-0.0055 0.05374,-0.0248 0.06615,-0.05512 0.06339,-0.152964 0.03583,-0.198437 0.118513,-0.205327 0.01654,-0.0014 0.04134,-0.0041 0.04134,-0.0041 0,0 0.0014,0.361043 0.03858,0.468531 0.02205,0.06339 0.05512,0.09508 0.07855,0.139181 0.05237,0.09784 0.02067,0.194303 0.02755,0.345888 0.0014,0.03583 0.07028,0.158475 0.09233,0.16261 0.06615,0.0096 0.177769,-0.04134 0.228756,-0.01792 0.03447,0.01517 0.05374,0.05926 0.09095,0.08268 0.0248,0.01655 0.100598,0.01655 0.118512,0 0.03996,-0.03583 0.05237,-0.107488 0.08131,-0.08819 0.0248,0.01517 0.06615,0.122643 0.07304,0.190169 0.01101,0.09095 -0.0096,0.137802 0.05926,0.209461 0.03996,0.04134 0.106108,0.0096 0.122646,-0.05237 0.0193,-0.07166 -0.0441,-0.122647 -0.09371,-0.212217 -0.0303,-0.0565 -0.05099,-0.14194 -0.03721,-0.16123 0.01379,-0.02205 0.04961,-0.0028 0.07717,0.02618 0.03996,0.04272 0.23289,0.454752 0.351402,0.695907 0.03168,0.06477 0.06339,0.122647 0.101974,0.179148 0.0248,0.0372 0.02893,0.04134 0.04134,0.03996 l 0.02618,-0.0014 c 0,0 0,-0.08544 -0.01101,-0.14745 -0.03305,-0.172254 -0.137802,-0.179144 -0.08544,-0.340378 0.0248,-0.07717 0.108864,-0.176389 0.1819,-0.192923 0.02755,-0.0055 0.06201,-0.0096 0.163988,-0.01792 0.05099,-0.0041 0.100595,0.01792 0.130913,0.05788 0.125402,0.166744 0.475424,0.636655 0.504363,0.71658 0.01792,0.04961 0.0096,0.06064 -0.02342,0.05512 -0.05374,-0.0096 -0.197058,-0.07993 -0.270094,-0.135047 -0.05374,-0.04134 -0.108867,-0.09095 -0.108867,-0.09095 l 0.01792,0.214972 c 0.0028,0.0441 0.0028,0.05099 -0.0041,0.06753 -0.0055,0.01242 -0.01379,0.02205 -0.02067,0.03306 -0.111622,0.146071 -0.301791,0.429948 -0.4644,0.327974 -0.05512,-0.03447 -0.09784,-0.107488 -0.16123,-0.118512 -0.07993,-0.01517 -0.213597,0.02618 -0.213597,0.02618 0,0 -0.107484,-0.24667 -0.170875,-0.39963 -0.04548,-0.106112 -0.05512,-0.118513 -0.111622,-0.122647 -0.01379,0 -0.02618,-0.0014 -0.03305,0.0028 -0.01517,0.0096 0.05237,0.16812 0.08957,0.275608 0.03721,0.108863 0.0248,0.220486 -0.03306,0.311435 -0.0248,0.03859 -0.03996,0.0441 -0.07717,0.03859 -0.04823,-0.0069 -0.23151,-0.104732 -0.270097,-0.143316 -0.110243,-0.113001 -0.256314,-0.427192 -0.334864,-0.491959 -0.106108,-0.08819 -0.133667,-0.08819 -0.16812,-0.208086 -0.01655,-0.0565 -0.02205,-0.112998 -0.01379,-0.169499 0.0096,-0.07579 0.04272,-0.150206 0.04823,-0.227376 0.0055,-0.07717 -0.02618,-0.270094 -0.04961,-0.30868 -0.04272,-0.06615 -0.344508,-0.213597 -0.456131,-0.179144 -0.04685,0.01517 -0.103349,0.05926 -0.08268,0.09646 0.01517,0.0248 0.07579,0.05374 0.115753,0.06615 0.165365,0.05236 0.194307,0.0441 0.242535,0.183279 0.03306,0.09922 -0.0055,0.432703 0.03168,0.600822 0.01242,0.05375 0.05375,0.159855 0.09233,0.205328 0.05512,0.06615 0.159855,0.113001 0.217731,0.180523 0.04134,0.04961 0.0565,0.110243 0.09646,0.157099 0.0441,0.04961 0.115753,0.08268 0.162609,0.135047 0.07993,0.08819 0.07855,0.159851 0.177765,0.208082 0.08819,0.0441 0.461642,0.07855 0.500228,0.08268 0.02067,0.0014 0.03996,0.0028 0.05925,-0.0028 0.125402,-0.02755 0.139185,-0.111622 0.243914,-0.08406 0.06063,0.01655 0.278363,0.155716 0.301791,0.172255 0.107488,0.07717 0.214972,0.188789 0.312815,0.191547 0.0689,0.0028 0.143316,-0.04961 0.217731,-0.03306 0.09232,0.02067 0.281118,0.159851 0.281118,0.159851 0,0 0.06615,-0.08957 0.114377,-0.125402 0.09095,-0.06477 0.184658,0.07166 0.286632,0.126781 0.139182,0.07579 0.373447,0.117133 0.461642,-0.03583 0.0055,-0.01101 0.0096,-0.02205 0.01379,-0.03447 0.01101,-0.04272 0.0069,-0.10335 0.02067,-0.148826 0.02205,-0.06752 0.15572,-0.248049 0.157096,-0.249425 0.0193,-0.01655 0.227376,-0.110243 0.263207,-0.09508 0.01655,0.0083 0.02067,0.06201 0.0069,0.08682 -0.05512,0.09371 -0.220486,0.106109 -0.188792,0.180524 0.06339,0.143316 0.367936,0.111622 0.45751,0.08957 0.0303,-0.0069 0.05374,-0.01517 0.08682,-0.04823 0.03168,-0.03168 0.07442,-0.08682 0.07442,-0.08682 0,0 -0.08406,-0.07717 -0.13505,-0.129533 -0.07855,-0.08544 -0.186034,-0.235645 -0.16812,-0.31006 0.02755,-0.110243 0.07579,-0.126781 0.05237,-0.190168 -0.02342,-0.06477 -0.227375,-0.31006 -0.274228,-0.356912 -0.0303,-0.03168 -0.06339,-0.06064 -0.09095,-0.09233 -0.04272,-0.04685 -0.07717,-0.101974 -0.114378,-0.154341 -0.188789,-0.268718 -0.746894,-0.759297 -1.02526,-0.989432 -0.172254,-0.141937 -0.665589,-0.618737 -0.695907,-0.669727 -0.02342,-0.03996 -0.03996,-0.07993 -0.07579,-0.108864 -0.119888,-0.0937 -0.202569,-0.05926 -0.223242,-0.152961 -0.01242,-0.05099 0.0028,-0.126781 -0.01517,-0.184658 -0.03858,-0.128157 -0.330729,-0.327974 -0.453372,-0.388606 -0.515388,-0.257694 -0.677994,-0.263207 -1.076248,-0.54157 -0.355533,-0.250804 -0.96187,-0.711066 -1.051443,-0.740008 -0.07717,-0.0248 -0.0813,0.0041 -0.194303,0.05099 -0.0303,0.01242 -0.04272,0.0069 -0.06615,-0.02342 -0.04961,-0.06752 -0.108864,-0.212221 -0.09922,-0.282501 0.0041,-0.03447 0.0248,-0.06477 0.02618,-0.09784 0.0014,-0.0565 -0.140561,-0.228756 -0.179144,-0.32935 -0.02755,-0.07304 0.0028,-0.137806 0.05788,-0.228755 0.0193,-0.03168 0.514008,-0.749653 0.615982,-0.826823 0.06339,-0.04961 0.14056,-0.08268 0.209461,-0.130913 0.157099,-0.114377 0.125402,-0.162609 0.248049,-0.37345 0.02205,-0.03858 0.04823,-0.06615 0.08406,-0.09646 0.203951,-0.165364 0.760677,-0.464396 0.770322,-0.504359 0.0096,-0.04272 -0.06477,-0.13505 -0.133668,-0.184658 -0.139181,-0.100598 -0.263207,-0.03583 -0.519521,-0.01792 -0.16261,0.01101 -0.618737,-0.08819 -0.906749,-0.09508 -0.347267,-0.0069 -0.45751,0.09922 -0.854385,0.288007 -0.344509,0.16261 -0.578774,0.202573 -0.840602,0.04823 -0.223242,-0.132291 -0.267339,-0.210837 -0.424434,-0.451996 -0.101978,-0.157096 -0.24667,-0.378961 -0.282498,-0.471287 -0.05788,-0.14745 -0.07166,-0.304549 -0.114377,-0.467155 -0.103354,-0.403765 -0.468535,-1.101055 -0.764812,-1.41938 -0.126781,-0.136426 -0.290766,-0.261828 -0.405144,-0.413413 -0.07441,-0.09922 -0.126778,-0.209462 -0.209462,-0.294898 -0.03587,-0.0372 -0.0772,-0.07028 -0.110278,-0.107484 -0.02342,-0.02618 -0.04272,-0.05512 -0.06477,-0.08544 -0.05374,-0.06752 -0.267339,-0.253559 -0.381716,-0.332105 -0.09509,-0.06339 -0.180524,-0.114377 -0.267339,-0.176388 -0.09233,-0.06477 -0.682131,-0.647679 -1.029395,-0.988057 -0.152961,-0.148826 -0.923286,-0.824064 -1.274685,-0.986673 -0.125402,-0.05788 -0.205327,-0.07166 -0.275607,0.0303 -0.09784,0.140561 -0.135047,0.387227 -0.100598,0.529167 0.01654,0.06477 0.04548,0.139181 0.06752,0.201193 0.01792,0.04823 -0.01792,0.09922 -0.07028,0.100598 -0.152961,0.0041 -0.249424,0.0248 -0.271473,0.16674 -0.01655,0.100598 -0.02205,0.195682 -0.0014,0.292146 0.02205,0.09922 0.06477,0.190168 0.0565,0.278363 -0.0041,0.03859 -0.01792,0.07717 -0.0248,0.115757 -0.0096,0.06063 -0.0028,0.125398 0.01517,0.186034 0.03721,0.122646 0.111622,0.265962 0.100598,0.325215 -0.01379,0.07028 -0.08544,0.132291 -0.115754,0.21222 -0.04961,0.132292 -0.01517,0.213597 0.06339,0.321081 0.09371,0.128157 0.163989,0.2384 0.226001,0.133671 0.0441,-0.07442 0.0028,-0.158475 -0.02893,-0.260449 -0.02067,-0.06615 0.0028,-0.07579 0.101974,-0.05788 0.0083,0.0014 1.158931,0.527787 1.209918,0.62425 0.0193,0.03858 0.0028,0.06063 -0.07579,0.110243 -0.06477,0.03996 -0.166741,0.09784 -0.166741,0.09784 0,0 -0.07441,-0.08268 -0.144695,-0.148827 l -0.02205,-0.02067 c -0.02755,-0.02618 -0.06201,-0.04272 -0.09922,-0.04961 -0.05237,-0.0096 -0.126778,-0.01517 -0.177769,-0.01242 l -0.117132,0.0055 c -0.04547,0.0028 -0.07166,0.05099 -0.04823,0.08957 0.0083,0.01242 0.0193,0.01655 0.03168,0.02205 0.115757,0.04961 0.274232,0.169499 0.475425,0.242534 0.259073,0.0937 0.621495,0.163985 0.640789,0.199814 0.01792,0.03306 -0.0041,0.08682 -0.0689,0.125401 -0.0303,0.0193 -0.183278,0.0303 -0.217727,0.01655 -0.06064,-0.02342 -0.09922,-0.07441 -0.165365,-0.0937 -0.06477,-0.0193 -0.245293,-0.0028 -0.264583,0.07166 -0.0193,0.07993 0.197058,0.107488 0.305922,0.130916 0.374826,0.07579 0.424437,0.08268 0.694531,0.241155 0.04548,0.02755 0.08957,0.05512 0.100598,0.08544 0.01655,0.05237 -0.02205,0.132291 0.0565,0.150205 0.0096,0.0014 0.0193,0.0014 0.02893,-0.0028 0.03168,-0.01101 0.06339,-0.04823 0.09922,-0.0565 0.06201,-0.01654 0.126777,0.04823 0.136426,0.07166 0.0083,0.02205 -0.05788,0.16812 -0.08957,0.195682 -0.08957,0.07993 -0.248045,0.157096 -0.248045,0.157096"
       id="path37"
       style="display:inline;stroke-width:0.352778;fill:#ffffff;fill-opacity:1"
       inkscape:label="bird" /></g></svg>
