<?xml version="1.0" encoding="UTF-8" standalone="no"?>
<!-- Created with Inkscape (http://www.inkscape.org/) -->

<svg
   width="19.677036mm"
   height="23.000454mm"
   viewBox="0 0 19.677036 23.000454"
   version="1.1"
   id="svg1"
   xml:space="preserve"
   sodipodi:docname="ada-logo.svg"
   inkscape:version="1.4.2 (f4327f4, 2025-05-13)"
   xmlns:inkscape="http://www.inkscape.org/namespaces/inkscape"
   xmlns:sodipodi="http://sodipodi.sourceforge.net/DTD/sodipodi-0.dtd"
   xmlns="http://www.w3.org/2000/svg"
   xmlns:svg="http://www.w3.org/2000/svg"><sodipodi:namedview
     id="namedview1"
     pagecolor="#ffffff"
     bordercolor="#000000"
     borderopacity="0.25"
     inkscape:showpageshadow="2"
     inkscape:pageopacity="0.0"
     inkscape:pagecheckerboard="0"
     inkscape:deskcolor="#d1d1d1"
     inkscape:document-units="mm"
     inkscape:zoom="6.5642424"
     inkscape:cx="44.711938"
     inkscape:cy="45.625981"
     inkscape:window-width="2560"
     inkscape:window-height="1009"
     inkscape:window-x="-8"
     inkscape:window-y="-8"
     inkscape:window-maximized="1"
     inkscape:current-layer="layer1" /><defs
     id="defs1" /><g
     id="layer1"
     transform="translate(33.539846,-28.169494)"><path
       fill-rule="nonzero"
       fill="#ffffff"
       fill-opacity="1"
       d="m -23.700662,30.100975 c -1.26504,0 -2.473579,0.241156 -3.584275,0.676614 -0.02205,-0.02618 -0.03997,-0.05236 -0.06063,-0.07992 -0.05374,-0.06752 -0.267339,-0.253559 -0.381716,-0.332105 -0.09509,-0.06339 -0.181903,-0.114378 -0.267339,-0.176389 -0.09233,-0.06477 -0.682131,-0.647679 -1.029395,-0.988057 -0.152964,-0.148826 -0.923286,-0.824064 -1.274685,-0.986673 -0.125402,-0.05788 -0.205327,-0.07166 -0.275607,0.0303 -0.09922,0.140561 -0.135051,0.387227 -0.100599,0.529167 0.01655,0.06477 0.04548,0.139181 0.06753,0.201193 0.0193,0.04823 -0.01792,0.09922 -0.07028,0.100598 -0.152964,0.0041 -0.248048,0.0248 -0.271473,0.16674 -0.01655,0.100598 -0.02205,0.195682 -0.0014,0.292146 0.02205,0.09922 0.06477,0.190168 0.0565,0.278363 -0.0041,0.03859 -0.01792,0.07717 -0.0248,0.115757 -0.0096,0.06063 -0.0028,0.125398 0.01517,0.186034 0.03721,0.122646 0.111622,0.265962 0.100598,0.325215 -0.01379,0.07028 -0.08544,0.132292 -0.115757,0.21222 -0.0372,0.09646 -0.02755,0.166741 0.01101,0.239776 0.09509,0.158475 0.143316,0.351402 0.121268,0.469915 -0.02205,0.119888 0.146074,0.248045 0.155719,0.323835 0.0055,0.04686 -0.0028,0.113002 -0.0303,0.16261 -0.05926,0.104732 -0.01517,0.297656 0.118512,0.359667 0.09922,0.0441 0.169499,0.198438 0.363802,0.332109 -2.05879,1.802472 -3.361037,4.448305 -3.361037,7.400064 v 11.22963 h 19.676975 V 39.940152 c 0,-5.433603 -4.404209,-9.839191 -9.837816,-9.839191"
       id="path34"
       style="display:none;stroke-width:0.352778"
       inkscape:label="background"
       inkscape:export-filename="ada-logo.png"
       inkscape:export-xdpi="1000"
       inkscape:export-ydpi="1000" /><path
       fill-rule="nonzero"
       fill="#182c64"
       fill-opacity="1"
       d="m -23.700662,30.100975 c -1.215429,0 -2.377115,0.221862 -3.451983,0.624251 0.0069,0.0069 0.01379,0.01379 0.02067,0.02067 0.0193,0.01655 0.03858,0.03447 0.0565,0.05374 0.05926,0.06201 0.103353,0.129537 0.146071,0.197058 0.02342,0.03721 0.04686,0.07441 0.07441,0.110243 0.04272,0.05788 0.09784,0.114378 0.15572,0.169499 0.939821,-0.329349 1.949922,-0.511252 3.002745,-0.511252 5.022949,0 9.095052,4.072103 9.095052,9.095052 v 2.987586 c -0.250804,0.409279 -0.684886,0.680752 -1.1796,0.680752 -0.463021,0 -0.875055,-0.2384 -1.12999,-0.604957 -0.256318,0.366557 -0.666972,0.604957 -1.129993,0.604957 -0.469911,0 -0.886079,-0.24391 -1.141014,-0.620116 -0.254938,0.376206 -0.669727,0.620116 -1.139638,0.620116 -0.463021,0 -0.873679,-0.2384 -1.129993,-0.604957 -0.256314,0.366557 -0.666972,0.604957 -1.129993,0.604957 -0.463021,0 -0.875055,-0.2384 -1.12999,-0.604957 -0.256314,0.366557 -0.666972,0.604957 -1.129993,0.604957 -0.472665,0 -0.891589,-0.248045 -1.146527,-0.628385 -0.253559,0.38034 -0.672483,0.628385 -1.145149,0.628385 -0.4644,0 -0.875054,-0.2384 -1.131369,-0.604957 -0.254938,0.366557 -0.665593,0.604957 -1.129993,0.604957 -0.463021,0 -0.873675,-0.2384 -1.129989,-0.604957 -0.254939,0.366557 -0.665593,0.604957 -1.129993,0.604957 -0.467156,0 -0.880565,-0.242535 -1.13688,-0.614606 v -3.053732 c 0,-2.706466 1.183736,-5.134568 3.060623,-6.800617 -0.01379,-0.02618 -0.02618,-0.05099 -0.03859,-0.07993 -0.0937,-0.198437 -0.2508,-0.337619 -0.410655,-0.440972 -2.05879,1.803852 -3.359658,4.449685 -3.359658,7.401444 v 11.229641 h 19.677018 V 39.94017 c 0,-5.433604 -4.404209,-9.839191 -9.837815,-9.839191"
       id="path35"
       style="display:inline;stroke-width:0.352778"
       inkscape:label="frame-original" /><path
       fill-rule="evenodd"
       fill="#f9ec00"
       fill-opacity="1"
       d="m -17.273492,47.768802 c -0.629761,-0.126781 -1.287088,-0.04272 -1.861728,0.241155 -0.804774,0.480935 -0.8723,1.529624 -0.08406,2.095998 0.338995,0.24529 1.1231,0.314191 1.488281,0.133667 0.187413,-0.0937 0.40101,-0.294897 0.531922,-0.32246 0.157096,-0.03447 0.220486,0.135047 0.398255,0.299036 0.07441,0.06752 0.176389,0.117133 0.274228,0.141937 0.405144,0.104732 0.782726,-0.0041 1.10932,-0.230132 0.30317,-0.209461 0.526412,-0.391364 0.479559,-0.676617 -0.02893,-0.179144 -0.07166,-0.202572 -0.425817,-0.361047 -0.05099,-0.02205 -0.08406,-0.07166 -0.08406,-0.126777 v -1.915474 c -0.0028,-0.07028 -0.0041,-0.08544 -0.01655,-0.152965 -0.0193,-0.09646 -0.114377,-0.274228 -0.15434,-0.333484 -0.201193,-0.293522 -0.490583,-0.48507 -0.799264,-0.563615 -0.777212,-0.197062 -2.353688,-0.221866 -2.904903,0.580153 -0.150206,0.217728 -0.165364,0.577399 0.08268,0.759298 0.327974,0.239779 0.717959,0.03305 0.957738,-0.256314 0.140558,-0.16812 0.395496,-0.545705 0.665593,-0.502984 0.25769,0.03996 0.290763,0.241156 0.332105,0.491959 0.01101,0.0689 0.01242,0.08406 0.01242,0.154341 z m -0.02755,0.690397 c 0.01101,0.157095 0.0248,0.458886 -0.0014,0.629761 -0.03721,0.235645 -0.205327,0.391365 -0.450617,0.265963 -0.249425,-0.126778 -0.276987,-0.559485 -0.147451,-0.785481 0.0689,-0.119892 0.267339,-0.227376 0.439593,-0.205327 0.01517,0.0014 0.15572,0.03996 0.159854,0.09508 m -5.233789,1.379414 c 0.06063,-0.04272 0.143316,0.01242 0.124022,0.08406 0,0.08957 0.0055,0.246666 0.03996,0.319705 0.03996,0.0813 0.184658,0.117133 0.29628,0.129533 0.559481,0.06477 1.248502,-0.08819 1.711523,-0.358288 0.253559,-0.147451 0.389985,-0.2384 0.347264,-0.469911 -0.04134,-0.23151 -0.154341,-0.210841 -0.418924,-0.354157 -0.07579,-0.04134 -0.114374,-0.08268 -0.129533,-0.166744 -0.0083,-0.03996 -0.0248,-0.05236 -0.0248,-0.122643 v -4.146518 c 0,-0.475421 -0.02342,-0.417544 -0.471287,-0.380337 -0.319704,0.02618 -1.492415,0.230131 -1.788696,0.445107 -0.170875,0.124022 -0.259069,0.41341 -0.0813,0.518142 0.09508,0.0565 0.294898,0.07855 0.372068,0.155716 0.01792,0.0193 0.0303,0.04134 0.03859,0.06477 0.01242,0.03168 0.01379,0.04272 0.01379,0.111619 l -0.0014,0.451997 c 0,0 -0.212217,-0.08406 -0.372071,-0.136427 -0.514008,-0.170874 -1.172711,-0.132291 -1.648132,0.137806 -0.672483,0.381716 -1.074872,1.113455 -1.121724,1.907205 -0.04685,0.814419 0.372071,1.612304 1.03215,2.013313 0.347264,0.210841 1.065223,0.392741 1.488281,0.172255 0.179144,-0.0937 0.460266,-0.322461 0.593934,-0.376206 m -1.03904,-1.965082 c 0.03583,-0.451996 0.136426,-0.768946 0.451996,-0.96187 0.209462,-0.129536 0.474045,-0.07855 0.573264,0.09508 0.07992,0.139181 0.07028,0.671103 0.06477,0.890213 -0.01517,0.515387 -0.02067,1.154797 -0.438214,1.256771 -0.56224,0.137802 -0.693155,-0.774457 -0.651813,-1.280199 m -1.918229,1.721171 c -0.07579,-0.144695 -0.161231,-0.128157 -0.370692,-0.23151 -0.141937,-0.07028 -0.214976,-0.191548 -0.293522,-0.333485 -0.163989,-0.299035 -0.666972,-1.464856 -1.004591,-2.228289 -0.148826,-0.333484 -0.808909,-1.57372 -0.953601,-1.787316 -0.122647,-0.1819 -0.23151,-0.325216 -0.396875,-0.467156 -0.248048,-0.210837 -0.633899,-0.316946 -0.966004,-0.272849 -0.505742,0.06615 -0.588423,0.376203 -0.683507,0.839223 -0.03306,0.158475 -0.289391,0.819934 -0.454755,1.176846 -0.445107,0.953604 -0.876431,2.007803 -1.270551,2.816712 -0.04548,0.0937 -0.104729,0.194303 -0.172254,0.246665 -0.137805,0.101978 -0.377581,0.129537 -0.507118,0.231511 -0.100598,0.07993 -0.140561,0.234269 -0.106108,0.366561 0.07855,0.304546 0.480934,0.39825 0.795125,0.424434 0.260453,0.02205 1.211298,0.03583 1.543403,-0.191548 0.125402,-0.08406 0.201196,-0.279742 0.161234,-0.443728 -0.04823,-0.188792 -0.22738,-0.166744 -0.425817,-0.307301 -0.06063,-0.04272 -0.107485,-0.108867 -0.104729,-0.180523 0.0041,-0.176389 0.191547,-0.279742 0.345888,-0.31006 0.378961,-0.07579 1.113455,-0.06201 1.462098,0.0028 0.252179,0.04685 0.574643,0.183279 0.372071,0.417548 -0.09646,0.112998 -0.31695,0.186034 -0.38723,0.294897 -0.0689,0.106109 -0.06339,0.304546 0.02618,0.413414 0.201193,0.246669 0.650434,0.260448 0.950845,0.286632 0.217731,0.02067 1.429026,0.100594 2.046387,-0.111623 0.253559,-0.08544 0.549839,-0.345888 0.402389,-0.635275 -0.0028,-0.0055 -0.0055,-0.01101 -0.0083,-0.01655 m -4.663282,-1.802472 c 0,0 0.07993,-0.219111 0.147451,-0.40101 0.08957,-0.237024 0.279742,-0.615985 0.340374,-0.679372 0.146071,-0.151585 0.268718,-0.08544 0.418924,0.150205 0.183278,0.288008 0.439596,0.932932 0.439596,0.932932 z m 0,0"
       id="path36"
       style="display:inline;stroke-width:0.352778"
       inkscape:label="ada" /><path
       fill-rule="evenodd"
       fill="#182c64"
       fill-opacity="1"
       d="m -19.598241,41.133546 c 0.07028,0.132292 0.133668,0.151585 0.07717,0.223245 -0.06752,0.08819 -0.192927,-0.08957 -0.278363,-0.208086 -0.08957,-0.125402 -0.165364,-0.276983 -0.201196,-0.412034 -0.0193,-0.07028 0.02067,-0.125402 0.0813,-0.104729 0.139181,0.04685 0.242535,0.350023 0.321084,0.501604 m -3.363792,-0.760677 0.04548,-0.0028 -0.0041,-0.05236 c -0.0014,-0.0248 -0.0028,-0.02893 -0.0096,-0.0441 -0.0303,-0.06753 -0.09371,-0.103361 -0.125402,-0.05788 -0.03168,0.04685 -0.02755,0.08819 0.0193,0.135047 0.0096,0.0096 0.02067,0.01655 0.03858,0.02067 0.01242,0.0028 0.01655,0.0028 0.03583,0.0014 m -0.39963,-0.199814 0.07441,-0.0055 c 0,0 0.0014,-0.04272 -0.0055,-0.07028 -0.01101,-0.04548 -0.158475,-0.107488 -0.226,-0.125402 -0.02618,-0.0069 -0.04547,-0.0055 -0.05374,0.0041 -0.01792,0.02205 0.05374,0.173634 0.15296,0.195683 0.01792,0.0041 0.02342,0.0041 0.05788,0.0014 m 1.712902,-0.610465 c 0.01517,0.03306 -0.0193,0.146072 -0.02205,0.152961 -0.0248,0.05926 -0.08819,0.09233 -0.135047,0.05926 -0.0193,-0.01379 -0.03721,-0.03305 -0.04961,-0.0565 -0.05237,-0.09233 -0.03168,-0.235642 0.0565,-0.272849 0.05374,-0.02205 0.111619,0.03306 0.150206,0.117132 m -2.517677,0.136427 c -0.0041,0.03996 0.03447,0.09508 0.05374,0.119888 0.06201,0.08406 0.08819,0.110243 0.195682,0.118512 0.05237,0.0041 0.198437,-0.01517 0.165364,-0.08544 -0.01101,-0.02342 -0.04134,-0.0441 -0.07304,-0.06201 -0.05788,-0.03168 -0.122647,-0.05374 -0.16812,-0.09371 -0.03583,-0.03168 -0.06063,-0.07441 -0.09371,-0.09095 -0.07028,-0.03583 -0.07304,0.0303 -0.07993,0.09371 m -3.326585,0.217727 c -0.01242,0.0041 -0.03721,0.0096 -0.0565,0.0041 -0.04548,-0.01379 -0.06477,-0.09646 -0.09784,-0.107485 -0.01101,-0.0041 -0.0248,0.0014 -0.03996,0.0083 -0.03583,0.01792 -0.08268,0.04823 -0.128157,0.06201 -0.07579,0.02205 -0.141936,0.01101 -0.09508,0.08682 0.09784,0.157095 0.476801,0.14194 0.595313,0.05512 0.137802,-0.100594 0.246669,-0.443727 0.268718,-0.636654 0.0041,-0.03306 -0.0014,-0.04961 -0.04272,-0.02893 -0.03996,0.0193 -0.106108,0.115757 -0.132291,0.157099 -0.07166,0.118508 -0.119888,0.293522 -0.223242,0.370692 -0.01517,0.01242 -0.03447,0.0248 -0.04823,0.02893 m 2.178678,-0.923286 c 0.05788,0.07855 0.566374,0.534681 0.687642,0.538812 0.04134,0.0014 0.08957,-0.0069 0.08957,-0.0069 0,0 -0.0055,-0.03858 -0.01517,-0.06614 -0.01379,-0.03858 -0.06064,-0.08268 -0.101974,-0.110243 -0.114377,-0.07855 -0.384475,-0.341754 -0.30317,-0.26596 -0.08544,-0.07855 -0.181899,-0.151585 -0.278363,-0.206706 0,0 0.01655,0.0083 -0.03583,-0.02067 -0.05099,-0.02893 -0.108867,0.0248 -0.08131,0.07579 z m -2.819463,0.78824 c -0.100598,-0.06477 -0.312815,-0.187414 -0.279742,-0.274232 0.01379,-0.03721 0.04961,-0.07717 0.0303,-0.115754 -0.0028,-0.0069 -0.0083,-0.0069 -0.05375,-0.0028 -0.206707,0.01792 -0.260449,0.01655 -0.359668,-0.09784 -0.01792,-0.02067 -0.03447,-0.03858 -0.03447,-0.06063 0,-0.04134 0.06201,-0.09922 0.08268,-0.150205 0.0193,-0.04548 -0.03168,-0.06201 -0.09922,-0.06201 -0.0041,0 -0.0096,0 -0.01379,0 -0.107487,0.0069 -0.117132,0.03168 -0.213596,-0.03168 -0.05926,-0.03859 -0.112998,-0.09922 -0.111622,-0.159854 0.0014,-0.01655 0.0041,-0.02067 0.03721,-0.05099 l 0.15434,-0.141937 h 0.0014 c 0.07441,-0.07029 0.0441,-0.10336 -0.02755,-0.08545 -0.02893,0.0069 -0.06615,0.01517 -0.10473,0.02205 -0.02618,0.0055 -0.05237,0.0096 -0.07579,0.01242 -0.09784,0.01242 -0.07992,0.02893 -0.128157,-0.05237 -0.02893,-0.05099 -0.07304,-0.121268 -0.101974,-0.157096 -0.0096,-0.01101 -0.07717,-0.05237 -0.09508,-0.02618 -0.0041,0.0069 -0.0014,0.01792 0.0014,0.02755 0.0014,0.01101 0.0028,0.01655 0.01379,0.06063 0.05788,0.226 0.16123,0.421682 0.329349,0.62563 0.04823,0.0565 0.09784,0.111623 0.140561,0.169499 0.08268,0.114378 0.09784,0.16123 0.224621,0.261829 0.04823,0.03996 0.09922,0.07166 0.151581,0.111618 0.08957,0.06891 0.474045,0.282498 0.505743,0.281122 0.0028,0 0.0069,0 0.0096,0 0.05099,0.0096 0.08268,-0.05237 0.04272,-0.08406 -0.0055,-0.0055 -0.01517,-0.01101 -0.02618,-0.0193 m 1.176846,-1.72944 -0.129537,0.0096 -0.0055,-0.0689 c -0.0028,-0.03168 -0.0014,-0.03721 0.01379,-0.05788 0.03859,-0.0565 0.130916,-0.07442 0.217731,-0.04823 0.07166,0.02067 0.06339,0.08406 0.0069,0.132292 -0.0096,0.0083 -0.02205,0.01655 -0.03447,0.02067 -0.01655,0.0069 -0.0248,0.0083 -0.0689,0.01242 m 3.429935,0.195682 -0.0014,-0.01655 -0.01655,0.0014 0.0303,-0.658703 0.01655,-0.0014 -0.0014,-0.01655 0.05099,-0.0041 c 0,0 0,0.01101 0.0014,0.01655 0.0014,0.0055 0.0069,0.0055 0.0096,0.0055 0.01242,0.0041 0.01379,0.03306 0.01242,0.05788 -0.0041,0.06477 -0.02755,0.112998 -0.03721,0.16812 -0.02205,0.126781 0.02205,0.194306 0.05788,0.307305 0.0193,0.0565 0.0041,0.06201 -0.04134,0.110243 -0.01101,0.01101 -0.0193,0.02342 -0.04134,0.02755 -0.01655,0.0028 -0.03996,0.0028 -0.03996,0.0028 m -5.735387,-0.898476 c 0.04272,0 0.09095,-0.0014 0.130912,-0.0014 0.07855,0 0.130916,0.0014 0.183279,0.0083 0.0083,0.0014 0.02205,0.0028 0.03447,0.0055 0.02205,0.0028 0.118513,-0.01101 0.100599,-0.06339 -0.0055,-0.01517 -0.01792,-0.02755 -0.0248,-0.0303 -0.112998,-0.04961 -0.279742,-0.0069 -0.243914,-0.0937 0.0028,-0.0069 0.01517,-0.0248 0.03583,-0.03306 0.01101,-0.0055 0.01655,-0.0069 0.06063,-0.01792 l 0.257693,-0.06064 c 0.0441,-0.01101 0.04961,-0.01242 0.05512,-0.01792 0.02067,-0.01792 0.01792,-0.0565 0.01379,-0.06201 -0.01242,-0.01517 -0.07992,-0.0028 -0.139181,0.0069 -0.275608,0.04272 -0.290766,0.01655 -0.525032,0.118512 -0.172258,0.07579 -0.165365,0.111619 -0.276987,0.341754 -0.07717,0.16123 -0.16123,0.323839 -0.09371,0.511253 0.01242,0.03168 0.03997,0.08544 0.07993,0.06477 0.02067,-0.01101 0.03858,-0.06063 0.04547,-0.08544 0.03168,-0.111619 0.02342,-0.24667 0.05512,-0.355533 0.04961,-0.165365 0.107488,-0.234266 0.250804,-0.235645 m 1.765268,-0.908128 c 0.02893,0.06339 -0.03168,0.249425 -0.03583,0.274232 -0.0028,0.01517 -0.0028,0.02755 0.0028,0.03306 0.03168,0.03858 0.0813,-0.0565 0.09371,-0.08957 0.0441,-0.111622 0.0689,-0.179144 0.03583,-0.267338 -0.04685,-0.125402 -0.263204,-0.449241 -0.401009,-0.591178 -0.0248,-0.0248 -0.0689,-0.05512 -0.09509,-0.02618 -0.01792,0.02205 0.03996,0.111619 0.07166,0.143316 0.03583,0.03583 0.07992,0.0565 0.108864,0.08957 0.03447,0.04272 0.04548,0.106109 0.07303,0.172254 0.03996,0.09371 0.114378,0.194307 0.146072,0.261829 m 4.661905,-1.259526 c -0.03306,0.02342 -0.08131,0.0014 -0.08406,-0.03859 l -0.0028,-0.03858 c -0.0014,-0.02618 0,-0.03306 0.01379,-0.05237 0.0303,-0.04272 0.06201,-0.06063 0.101974,-0.04547 0.09095,0.03305 -0.01517,0.162606 -0.0096,0.155716 -0.01101,0.01242 -0.01101,0.01379 -0.0193,0.0193 m -5.49286,-0.259076 c -0.0193,0.03997 0.04134,0.168123 0.05374,0.191547 0.0248,0.04686 0.06339,0.100599 0.08957,0.152965 0.05236,0.101974 0.08406,0.24391 0.179144,0.289387 0.01792,0.0083 0.03306,0.0055 0.04134,-0.0055 0.01101,-0.01655 -0.14745,-0.443728 -0.195682,-0.527791 -0.02755,-0.04685 -0.0565,-0.100595 -0.09508,-0.110243 -0.0248,-0.0069 -0.06477,-0.0069 -0.07304,0.0096 m -0.974273,-1.489654 c 0.0193,0.0441 0.05099,0.06615 0.07992,0.09508 0.03583,0.03721 0.06752,0.08406 0.0937,0.137802 0.06477,0.135051 0.09371,0.312815 0.163989,0.425817 0.0193,0.03168 0.04272,0.05788 0.06201,0.08544 0.01517,0.02205 0.02893,0.04548 0.05788,0.04961 0.02205,0.0014 0.05237,-0.0069 0.05237,-0.0069 0,0 -0.01655,-0.101978 -0.03721,-0.192927 -0.05374,-0.246669 -0.210841,-0.522277 -0.17501,-0.467156 -0.03859,-0.05926 -0.206706,-0.217727 -0.253559,-0.245289 -0.03168,-0.01792 -0.06615,0.0096 -0.06064,0.04961 l 0.0028,0.01792 c 0.0014,0.01655 0.0069,0.03447 0.01379,0.05099 m -0.48507,-0.968763 c 0,0 0.294901,0.08268 0.343133,0.09646 0.05926,0.01655 0.121267,-0.01101 0.148826,-0.06477 0.03447,-0.0689 0.0441,-0.100598 0,-0.144696 -0.02205,-0.02205 -0.04685,-0.02618 -0.104729,-0.0083 -0.03721,0.01101 -0.0689,0.0303 -0.103353,0.03996 -0.03168,0.0096 -0.06477,0.01101 -0.101974,0.0083 -0.07166,-0.0055 -0.224621,-0.04134 -0.252183,0.0028 -0.0083,0.01242 -0.0055,0.03721 0.01517,0.05099 0.0055,0.0041 0.01101,0.0069 0.05512,0.0193 m -0.687642,-0.235641 c 0.0193,0.0028 0.05926,0.0083 0.07993,-0.0069 0.01517,-0.0096 -0.06752,-0.297657 -0.106108,-0.369316 -0.0248,-0.04823 -0.05375,-0.07166 -0.118513,-0.03996 -0.08957,0.04272 -0.07717,0.203951 -0.03859,0.288011 0.0248,0.05099 0.09646,0.114378 0.183278,0.128157 m -0.130912,-0.614605 0.06064,-0.0041 c 0,0 -0.0014,-0.04272 -0.0069,-0.07855 -0.0096,-0.0565 -0.06752,-0.144692 -0.107488,-0.213593 -0.02342,-0.03859 -0.02755,-0.04272 -0.04685,-0.04134 l -0.0193,0.0014 c -0.0193,0.0014 -0.02342,0.0041 -0.03721,0.02893 -0.05237,0.08957 -0.0014,0.187413 0.07028,0.264583 0.01101,0.01242 0.02342,0.02342 0.0372,0.03168 0.01792,0.01242 0.02342,0.01242 0.04961,0.01101 m 0.478183,-0.76067 -0.348643,-0.16812 c -0.03996,-0.02067 -0.04547,-0.02342 -0.05512,-0.02893 -0.05099,-0.03447 -0.07717,-0.157099 -0.07304,-0.187413 0.01101,-0.07028 0.05788,-0.101977 0.117133,-0.113002 0.03859,-0.0055 0.32246,0.07166 0.354157,0.09646 0.03858,0.03168 0.06477,0.07028 0.108863,0.08957 0.05788,0.02893 0.354158,0.0303 0.318329,0.181899 -0.02205,0.09371 -0.163988,0.151585 -0.243914,0.166744 -0.03306,0.0055 -0.07166,0.0083 -0.108863,-0.0055 -0.02067,-0.0083 -0.02755,-0.01101 -0.06891,-0.03168 m 0.694531,-0.522277 c 0.0041,0.04548 -0.03305,0.08544 -0.07992,0.08268 h -0.0248 c -0.0083,0 -0.01517,-0.0014 -0.0248,-0.0028 -0.103353,-0.01242 -0.232889,-0.190169 -0.263203,-0.312815 -0.01655,-0.06615 0.05512,-0.119888 0.117132,-0.08957 0.03858,0.01792 0.106109,0.07579 0.148827,0.128157 0.05374,0.06753 0.125402,0.183279 0.124026,0.177769 0.0055,0.03583 0.0014,0.01101 0.0028,0.01655 m -0.567753,-0.147451 c 0,0.02618 -0.02755,0.04685 -0.05512,0.03721 l -0.04685,-0.01654 c -0.01101,-0.0055 -0.02067,-0.01242 -0.03306,-0.01792 -0.01517,-0.0096 -0.03447,-0.01517 -0.04961,-0.02618 -0.01242,-0.0083 -0.01792,-0.01379 -0.0248,-0.03168 -0.02342,-0.05375 0.0303,-0.107488 0.08682,-0.08544 0.04547,0.01655 0.121268,0.106108 0.115754,0.08957 0.0083,0.02893 0.0069,0.03583 0.0069,0.05099 m -0.509873,-1.467612 c 0,0 -0.0014,-0.02342 -0.0041,-0.04685 -0.0014,-0.02893 0.02067,-0.05375 0.04961,-0.05512 0.04134,-0.0041 0.04685,-0.0041 0.04685,-0.0041 0,0 0.0041,0.03305 0.0055,0.05512 0,0.0248 -0.01655,0.04272 -0.04134,0.04685 -0.02205,0.0028 -0.0565,0.0041 -0.0565,0.0041 m 0.751032,0.09784 c 0.07304,0.05512 0.25218,0.158475 0.301791,0.260452 0.04134,0.08406 -0.02342,0.136423 -0.118512,0.128157 -0.07855,-0.0069 -0.199817,-0.09095 -0.246669,-0.121267 -0.136426,-0.08682 -0.391361,-0.289391 -0.423058,-0.336243 -0.0441,-0.06477 -0.06201,-0.119888 -0.03447,-0.197058 0.04823,-0.133671 0.205328,-0.01517 0.279742,0.05926 0.06753,0.06752 0.151586,0.15985 0.208086,0.188789 0.01242,0.0069 0.0248,0.01242 0.03306,0.01792 m 1.077623,4.227823 0.332108,0.03306 c 0.0441,0.0041 0.04961,0.0069 0.05374,0.02755 0.0041,0.01655 0.0069,0.0303 0.0014,0.04823 -0.01379,0.04961 -0.224621,0.213596 -0.289387,0.281118 l -0.02755,0.02755 c -0.02755,0.02618 -0.0055,0.07166 0.03306,0.0689 0.02067,-0.0014 0.199817,-0.01517 0.199817,-0.01517 0.01655,-0.0014 0.02755,-0.0028 0.07992,-0.0083 0.04685,-0.0055 0.08406,0.03997 0.06752,0.08268 -0.0069,0.01517 -0.01517,0.02893 -0.0248,0.03858 -0.04134,0.04548 -0.140561,0.09095 -0.190172,0.121267 l -0.01242,0.0083 c -0.03721,0.02205 -0.01655,0.07717 0.02618,0.07166 0.02893,-0.0041 0.213597,-0.02618 0.290767,-0.03583 0.0193,-0.0028 0.03721,0.01242 0.03859,0.03168 0.0014,0.01655 0.0014,0.02618 0.0014,0.03583 -0.0028,0.0303 -0.02067,0.04685 -0.04548,0.06339 -0.114377,0.07028 -0.294901,0.165364 -0.170878,0.246669 0.01517,0.0096 0.02205,0.01101 0.06752,0.0069 l 0.157095,-0.01242 c 0,0 0.0083,0.03168 0.0041,0.06614 -0.0028,0.04134 -0.02205,0.08819 -0.03858,0.122644 -0.01379,0.0248 0.0096,0.05374 0.03858,0.04685 0.09371,-0.0193 0.09646,-0.04134 0.143316,-0.0565 0.06477,-0.02067 0.21911,-0.02618 0.21911,-0.02618 0,0 0.0069,0.04823 0.0055,0.07855 0,0.02618 -0.0083,0.03996 -0.02067,0.05374 -0.05237,0.06201 -0.144696,0.141937 -0.04548,0.159851 0.103353,0.0193 0.202572,-0.0014 0.192927,0.09509 -0.0041,0.04961 -0.01379,0.101973 -0.03859,0.147447 -0.02893,0.0565 -0.07992,0.101977 -0.110243,0.155719 -0.02893,0.04961 0.01792,0.108864 0.07441,0.09371 0.140561,-0.03583 0.228756,-0.106113 0.194303,0.0441 -0.01242,0.05788 -0.03306,0.08682 -0.03721,0.133667 -0.0041,0.05926 0.05788,0.103354 0.112998,0.07855 0.09095,-0.03859 0.106109,-0.04548 0.124026,-0.05375 0.05374,-0.0248 0.117133,0.01655 0.114374,0.07441 -0.0028,0.06064 -0.02067,0.398254 -0.02067,0.398254 -0.0014,0.0441 -0.0014,0.04961 0.0041,0.0565 0.02205,0.02618 0.08406,0.02755 0.09922,0.03583 0.0248,0.01379 0.03997,0.04547 0.04686,0.07579 0.0193,0.07166 0.01379,0.09371 0.09646,0.0689 0.09233,-0.02755 0.432706,-0.169499 0.38585,-0.278363 -0.01376,-0.0303 -0.04685,-0.06202 -0.05787,-0.09096 -0.0248,-0.06339 0.05099,-0.253559 0.08406,-0.303167 0.01792,-0.02342 0.03859,-0.04961 0.05926,-0.07304 0.04548,-0.05099 0.117133,-0.07442 0.186037,-0.05788 0.09646,0.02205 0.248046,0.05788 0.248046,0.05788 l -0.03447,-0.210841 0.01517,-0.06615 c 0.0069,-0.02893 0.01242,-0.03168 0.05788,-0.02893 0.248049,0.0193 0.537436,-0.05374 0.680752,-0.241156 0.01242,-0.01655 0.02342,-0.03306 0.0303,-0.05099 0.04685,-0.124023 0.0014,-0.184655 0.09784,-0.170875 0.0882,0.01242 0.224621,0.07579 0.337623,0.106108 0.252179,0.06477 0.709686,-0.03168 0.924662,-0.144695 0.07992,-0.04272 0.150206,-0.09508 0.225996,-0.132292 0.07855,-0.03996 0.445107,-0.170875 0.501608,-0.05374 0.0055,0.0083 0.0069,0.0193 0.0028,0.02893 -0.01101,0.03447 -0.07717,0.07028 -0.09233,0.110243 -0.03168,0.08268 0.111623,0.08682 0.181903,0.07304 0.07304,-0.01379 0.111619,-0.05374 0.111619,-0.148827 0.0014,-0.03583 0.0041,-0.03996 0.03583,-0.04686 0.08131,-0.01517 0.183282,0.0248 0.254938,0.04272 0.08819,0.02067 0.208083,0.02893 0.301791,0.01792 0.192924,-0.02342 0.374827,-0.09233 0.49058,-0.0303 0.01517,0.0096 0.02205,0.01655 0.02067,0.03721 0,0.0083 -0.0041,0.01242 -0.04134,0.0372 -0.05926,0.03997 -0.118512,0.07855 -0.184658,0.106112 -0.07717,0.03168 -0.163985,0.04823 -0.2384,0.07579 -0.224621,0.08406 -0.728983,0.434083 -0.853006,0.56775 -0.0303,0.03306 -0.03447,0.03859 -0.03447,0.0565 -0.0014,0.01379 -0.0014,0.02893 0.0055,0.03996 0.01379,0.02893 0.06063,0.03996 0.08131,0.06064 0.06339,0.06615 -0.07579,0.220486 -0.139182,0.234266 -0.06615,0.01517 -0.150205,-0.03305 -0.210841,-0.01655 -0.04272,0.01101 -0.07441,0.05788 -0.124022,0.08268 -0.03447,0.0193 -0.07855,0.02618 -0.115757,0.04272 -0.07717,0.03305 -0.33624,0.259069 -0.370692,0.31557 -0.0303,0.05099 -0.04134,0.114377 -0.07855,0.162609 -0.04961,0.06201 -0.144696,0.09646 -0.154341,0.137802 -0.01242,0.05788 0.0937,0.09233 0.172255,0.08268 0.07304,-0.01101 0.135047,-0.05512 0.263204,-0.07028 0.03168,-0.0028 0.06752,-0.0055 0.06752,-0.0055 0,0 0.0041,0.03583 0.0055,0.06615 0.0014,0.05237 -0.04548,0.163986 -0.07441,0.235645 -0.0096,0.0248 -0.06064,0.610472 -0.01517,0.734494 0.0069,0.0193 0.01655,0.03721 0.02893,0.05237 0.03583,0.04548 0.09509,0.08544 0.119898,0.133674 0.03858,0.0689 -0.01101,0.689018 -0.01792,0.712445 -0.01792,0.06477 -0.07855,0.128158 -0.140561,0.110244 -0.112998,-0.03447 -0.187413,-0.24667 -0.208086,-0.354158 -0.03306,-0.172254 -0.07166,-0.46302 -0.07166,-0.46302 0,0 -0.02755,-0.0014 -0.03996,0.0028 -0.0069,0.0028 -0.0083,0.0083 -0.01242,0.01242 -0.0041,0.0055 -0.0055,0.01101 -0.0096,0.05512 l -0.0689,0.581533 c -0.0055,0.0441 -0.0069,0.05237 -0.01101,0.07855 -0.01242,0.06339 -0.04548,0.08682 -0.111622,0.0937 -0.02067,0.0028 -0.04961,0.0041 -0.04961,0.0041 0,0 -0.01101,-0.09922 -0.01517,-0.181899 -0.0014,-0.03447 0.02618,-0.38172 0.06891,-0.494718 0.01655,-0.0441 0.0441,-0.08406 0.04961,-0.124023 0.0055,-0.04548 -0.01517,-0.09371 -0.01101,-0.136426 0.0041,-0.03858 0.02755,-0.07304 0.04134,-0.115753 0.04134,-0.132292 0.0303,-0.307305 -0.0882,-0.33073 -0.03859,-0.0069 -0.07028,0.0069 -0.104732,0.03306 -0.202569,0.157095 -0.176389,0.252179 -0.373447,0.283873 -0.07304,0.01242 -0.107488,-0.01101 -0.07855,-0.09646 0.0248,-0.06891 0.110243,-0.150209 0.190172,-0.221866 0.03306,-0.02893 0.03721,-0.03447 0.03721,-0.05237 0.0055,-0.14745 -0.282501,-0.100595 -0.3955,-0.07028 -0.101974,0.02618 -0.144691,0.05788 -0.246669,0.121267 -0.01517,0.0096 -0.03168,0.02067 -0.05099,0.02618 -0.0248,0.0083 -0.03168,0.0096 -0.07717,0.01792 -0.128157,0.02343 -0.358288,0.06891 -0.389985,0.05788 -0.0565,-0.02342 -0.07441,-0.06753 -0.121268,-0.0565 -0.0303,0.0069 -0.139181,0.126777 -0.198437,0.203947 -0.03168,0.04272 -0.129533,0.111623 -0.169499,0.119892 -0.07166,0.01379 -0.179144,0.01379 -0.179144,0.01379 l -0.04961,-0.177769 c -0.01242,-0.04272 -0.01517,-0.04823 -0.02755,-0.04823 -0.08131,-0.0028 -0.09371,0.08544 -0.07579,0.148829 0.01655,0.05512 0.05788,0.158475 0.04961,0.188793 -0.0248,0.09508 -0.283877,0.169496 -0.363802,0.15434 -0.02618,-0.0055 -0.04272,-0.01792 -0.06615,-0.0441 -0.04961,-0.0565 -0.130912,-0.176389 -0.130912,-0.176389 0,0 -0.14883,0.09784 -0.241159,0.163985 -0.05788,0.03996 -0.107488,0.09922 -0.107488,0.125402 -0.0014,0.04961 0.04823,0.111619 0.04823,0.177765 -0.0014,0.06753 -0.110243,0.243914 -0.16123,0.30455 -0.09095,0.107484 -0.237021,0.194303 -0.355533,0.299032 -0.195683,0.169499 -0.318326,0.388606 -0.07166,0.472669 0.07993,0.02755 0.110243,0.02755 0.184658,-0.02205 0.133671,-0.08819 0.301791,-0.260452 0.428572,-0.319705 0.06201,-0.0303 0.126778,-0.04548 0.179144,-0.07993 0.09784,-0.06477 0.112998,-0.122644 0.223242,-0.165365 0.01242,-0.0041 0.06201,-0.02205 0.06614,-0.01379 0.0028,0.0041 -0.0014,0.01242 0.0014,0.01655 0.0028,0.0028 0.0069,0.0041 0.01101,0.0069 0.0083,0.0069 0.0069,0.02755 0.0055,0.0441 -0.0028,0.02343 -0.0055,0.03996 -0.0055,0.06477 -0.0014,0.06339 0.01242,0.179144 0.01242,0.179144 0,0 0.03447,0.0028 0.0565,-0.0055 0.02893,-0.0096 0.0441,-0.05099 0.05925,-0.07441 0.0041,-0.0055 0.0083,-0.01101 0.02067,-0.01379 0.0096,-0.0014 0.0248,-0.0014 0.0248,-0.0014 0,0 0.0055,0.05512 0.0096,0.104733 0.0055,0.09646 -0.02067,0.348643 -0.0441,0.40652 -0.01379,0.03858 -0.03306,0.07717 -0.03996,0.118512 -0.0069,0.03583 -0.0083,0.07579 -0.0028,0.08268 0.04548,0.0441 0.183282,-0.08681 0.217731,-0.132291 0.04272,-0.05512 0.08268,-0.159851 0.106109,-0.24529 0.04134,-0.15434 0.107487,-0.381716 0.148829,-0.456131 0.05788,-0.100598 0.146072,-0.220486 0.146072,-0.220486 0,0 0.09233,0.02893 0.162609,0.06615 0.132292,0.07166 0.203948,0.180523 0.268718,0.192927 0.02342,0.0041 0.110243,0.0055 0.117133,-0.0014 0.03305,-0.02618 -0.03721,-0.124027 -0.07166,-0.158475 -0.152961,-0.15572 -0.370692,-0.250804 -0.270094,-0.423058 0.0565,-0.09784 0.194303,-0.163989 0.286632,-0.152965 0.101974,0.01242 0.129537,0.03721 0.220486,0.01517 0.08268,-0.0193 0.265959,-0.09922 0.31695,0.0041 0.02067,0.04134 -0.02755,0.113002 -0.04548,0.172258 -0.0028,0.01517 -0.0041,0.02755 -0.0041,0.04961 0.0014,0.02067 0.0041,0.04961 0.0041,0.04961 0,0 0.107488,-0.0248 0.216352,-0.03306 0.115757,-0.0083 0.23289,0.0014 0.23289,0.0014 0,0 0.0083,-0.175014 0.03168,-0.293526 0.01242,-0.06752 0.03721,-0.17363 0.0689,-0.186034 0.02893,-0.0096 0.09922,-0.01517 0.09922,-0.01517 0,0 0.0069,0.06753 0.01101,0.130912 0.0069,0.115757 -0.03721,0.511253 -0.06339,0.766191 -0.0055,0.0441 -0.0041,0.05099 0.0055,0.06201 0.02618,0.02893 0.06752,0.03859 0.111623,0.03721 0.07166,0 0.133671,-0.03168 0.166744,-0.01242 0.03447,0.0193 0.04134,0.08544 0.08819,0.141937 0.0096,0.01101 0.02205,0.02342 0.03583,0.03168 0.0193,0.01101 0.02618,0.01242 0.07166,0.0083 l 0.206707,-0.01517 0.01792,0.217731 c 0.0028,0.0441 0.0055,0.04961 0.01792,0.06339 0.0096,0.01101 0.02067,0.02067 0.03306,0.02618 0.0303,0.0083 0.07028,-0.02067 0.108864,-0.02618 0.04686,-0.0055 0.103353,0.02342 0.128161,0.0565 0.04547,0.06202 0.06063,0.181903 0.128157,0.15434 0.08406,-0.03306 0.08819,-0.09508 0.144692,-0.07717 0.0248,0.0083 0.05237,0.03168 0.07579,0.06063 0.09095,0.107488 0.139181,0.209462 0.263204,0.159851 0.03168,-0.01242 0.04823,-0.03858 0.06477,-0.07028 0.01655,-0.03583 0.143316,-0.679376 0.09646,-0.881944 -0.01379,-0.05788 -0.06201,-0.176389 -0.0937,-0.214976 -0.0248,-0.0303 -0.05512,-0.04548 -0.07303,-0.07579 -0.02618,-0.04548 -0.01242,-0.253559 0.04272,-0.311439 0.02755,-0.0303 0.118513,-0.04961 0.154341,-0.0372 0.02755,0.0096 0.04823,0.03583 0.07028,0.06477 0.09508,0.121267 0.101974,0.124022 0.23151,0.183278 0.146072,0.06753 0.165365,0.104733 0.152961,0.226 -0.0193,0.198438 -0.05512,0.494715 -0.0689,0.712445 -0.0041,0.06063 -0.0096,0.121268 -0.03721,0.166741 -0.05512,0.09233 -0.17501,0.157099 -0.141937,0.227376 0.01242,0.02618 0.0441,0.04548 0.06615,0.09095 0.01101,0.02067 0.0193,0.04823 0.02618,0.07441 0.01101,0.04686 0.0565,0.07442 0.103354,0.06615 0.06201,-0.01101 0.09508,-0.01517 0.114374,-0.01242 0.02618,0.0041 0.06064,0.04961 0.07028,0.103354 0.0083,0.04134 0.0083,0.104732 0.0083,0.104732 0,0 0.0441,-0.0014 0.07304,-0.0055 0.03305,-0.0055 0.05374,-0.0248 0.06615,-0.05512 0.06339,-0.152964 0.03583,-0.198437 0.118513,-0.205327 0.01654,-0.0014 0.04134,-0.0041 0.04134,-0.0041 0,0 0.0014,0.361043 0.03858,0.468531 0.02205,0.06339 0.05512,0.09508 0.07855,0.139181 0.05237,0.09784 0.02067,0.194303 0.02755,0.345888 0.0014,0.03583 0.07028,0.158475 0.09233,0.16261 0.06615,0.0096 0.177769,-0.04134 0.228756,-0.01792 0.03447,0.01517 0.05374,0.05926 0.09095,0.08268 0.0248,0.01655 0.100598,0.01655 0.118512,0 0.03996,-0.03583 0.05237,-0.107488 0.08131,-0.08819 0.0248,0.01517 0.06615,0.122643 0.07304,0.190169 0.01101,0.09095 -0.0096,0.137802 0.05926,0.209461 0.03996,0.04134 0.106108,0.0096 0.122646,-0.05237 0.0193,-0.07166 -0.0441,-0.122647 -0.09371,-0.212217 -0.0303,-0.0565 -0.05099,-0.14194 -0.03721,-0.16123 0.01379,-0.02205 0.04961,-0.0028 0.07717,0.02618 0.03996,0.04272 0.23289,0.454752 0.351402,0.695907 0.03168,0.06477 0.06339,0.122647 0.101974,0.179148 0.0248,0.0372 0.02893,0.04134 0.04134,0.03996 l 0.02618,-0.0014 c 0,0 0,-0.08544 -0.01101,-0.14745 -0.03305,-0.172254 -0.137802,-0.179144 -0.08544,-0.340378 0.0248,-0.07717 0.108864,-0.176389 0.1819,-0.192923 0.02755,-0.0055 0.06201,-0.0096 0.163988,-0.01792 0.05099,-0.0041 0.100595,0.01792 0.130913,0.05788 0.125402,0.166744 0.475424,0.636655 0.504363,0.71658 0.01792,0.04961 0.0096,0.06064 -0.02342,0.05512 -0.05374,-0.0096 -0.197058,-0.07993 -0.270094,-0.135047 -0.05374,-0.04134 -0.108867,-0.09095 -0.108867,-0.09095 l 0.01792,0.214972 c 0.0028,0.0441 0.0028,0.05099 -0.0041,0.06753 -0.0055,0.01242 -0.01379,0.02205 -0.02067,0.03306 -0.111622,0.146071 -0.301791,0.429948 -0.4644,0.327974 -0.05512,-0.03447 -0.09784,-0.107488 -0.16123,-0.118512 -0.07993,-0.01517 -0.213597,0.02618 -0.213597,0.02618 0,0 -0.107484,-0.24667 -0.170875,-0.39963 -0.04548,-0.106112 -0.05512,-0.118513 -0.111622,-0.122647 -0.01379,0 -0.02618,-0.0014 -0.03305,0.0028 -0.01517,0.0096 0.05237,0.16812 0.08957,0.275608 0.03721,0.108863 0.0248,0.220486 -0.03306,0.311435 -0.0248,0.03859 -0.03996,0.0441 -0.07717,0.03859 -0.04823,-0.0069 -0.23151,-0.104732 -0.270097,-0.143316 -0.110243,-0.113001 -0.256314,-0.427192 -0.334864,-0.491959 -0.106108,-0.08819 -0.133667,-0.08819 -0.16812,-0.208086 -0.01655,-0.0565 -0.02205,-0.112998 -0.01379,-0.169499 0.0096,-0.07579 0.04272,-0.150206 0.04823,-0.227376 0.0055,-0.07717 -0.02618,-0.270094 -0.04961,-0.30868 -0.04272,-0.06615 -0.344508,-0.213597 -0.456131,-0.179144 -0.04685,0.01517 -0.103349,0.05926 -0.08268,0.09646 0.01517,0.0248 0.07579,0.05374 0.115753,0.06615 0.165365,0.05236 0.194307,0.0441 0.242535,0.183279 0.03306,0.09922 -0.0055,0.432703 0.03168,0.600822 0.01242,0.05375 0.05375,0.159855 0.09233,0.205328 0.05512,0.06615 0.159855,0.113001 0.217731,0.180523 0.04134,0.04961 0.0565,0.110243 0.09646,0.157099 0.0441,0.04961 0.115753,0.08268 0.162609,0.135047 0.07993,0.08819 0.07855,0.159851 0.177765,0.208082 0.08819,0.0441 0.461642,0.07855 0.500228,0.08268 0.02067,0.0014 0.03996,0.0028 0.05925,-0.0028 0.125402,-0.02755 0.139185,-0.111622 0.243914,-0.08406 0.06063,0.01655 0.278363,0.155716 0.301791,0.172255 0.107488,0.07717 0.214972,0.188789 0.312815,0.191547 0.0689,0.0028 0.143316,-0.04961 0.217731,-0.03306 0.09232,0.02067 0.281118,0.159851 0.281118,0.159851 0,0 0.06615,-0.08957 0.114377,-0.125402 0.09095,-0.06477 0.184658,0.07166 0.286632,0.126781 0.139182,0.07579 0.373447,0.117133 0.461642,-0.03583 0.0055,-0.01101 0.0096,-0.02205 0.01379,-0.03447 0.01101,-0.04272 0.0069,-0.10335 0.02067,-0.148826 0.02205,-0.06752 0.15572,-0.248049 0.157096,-0.249425 0.0193,-0.01655 0.227376,-0.110243 0.263207,-0.09508 0.01655,0.0083 0.02067,0.06201 0.0069,0.08682 -0.05512,0.09371 -0.220486,0.106109 -0.188792,0.180524 0.06339,0.143316 0.367936,0.111622 0.45751,0.08957 0.0303,-0.0069 0.05374,-0.01517 0.08682,-0.04823 0.03168,-0.03168 0.07442,-0.08682 0.07442,-0.08682 0,0 -0.08406,-0.07717 -0.13505,-0.129533 -0.07855,-0.08544 -0.186034,-0.235645 -0.16812,-0.31006 0.02755,-0.110243 0.07579,-0.126781 0.05237,-0.190168 -0.02342,-0.06477 -0.227375,-0.31006 -0.274228,-0.356912 -0.0303,-0.03168 -0.06339,-0.06064 -0.09095,-0.09233 -0.04272,-0.04685 -0.07717,-0.101974 -0.114378,-0.154341 -0.188789,-0.268718 -0.746894,-0.759297 -1.02526,-0.989432 -0.172254,-0.141937 -0.665589,-0.618737 -0.695907,-0.669727 -0.02342,-0.03996 -0.03996,-0.07993 -0.07579,-0.108864 -0.119888,-0.0937 -0.202569,-0.05926 -0.223242,-0.152961 -0.01242,-0.05099 0.0028,-0.126781 -0.01517,-0.184658 -0.03858,-0.128157 -0.330729,-0.327974 -0.453372,-0.388606 -0.515388,-0.257694 -0.677994,-0.263207 -1.076248,-0.54157 -0.355533,-0.250804 -0.96187,-0.711066 -1.051443,-0.740008 -0.07717,-0.0248 -0.0813,0.0041 -0.194303,0.05099 -0.0303,0.01242 -0.04272,0.0069 -0.06615,-0.02342 -0.04961,-0.06752 -0.108864,-0.212221 -0.09922,-0.282501 0.0041,-0.03447 0.0248,-0.06477 0.02618,-0.09784 0.0014,-0.0565 -0.140561,-0.228756 -0.179144,-0.32935 -0.02755,-0.07304 0.0028,-0.137806 0.05788,-0.228755 0.0193,-0.03168 0.514008,-0.749653 0.615982,-0.826823 0.06339,-0.04961 0.14056,-0.08268 0.209461,-0.130913 0.157099,-0.114377 0.125402,-0.162609 0.248049,-0.37345 0.02205,-0.03858 0.04823,-0.06615 0.08406,-0.09646 0.203951,-0.165364 0.760677,-0.464396 0.770322,-0.504359 0.0096,-0.04272 -0.06477,-0.13505 -0.133668,-0.184658 -0.139181,-0.100598 -0.263207,-0.03583 -0.519521,-0.01792 -0.16261,0.01101 -0.618737,-0.08819 -0.906749,-0.09508 -0.347267,-0.0069 -0.45751,0.09922 -0.854385,0.288007 -0.344509,0.16261 -0.578774,0.202573 -0.840602,0.04823 -0.223242,-0.132291 -0.267339,-0.210837 -0.424434,-0.451996 -0.101978,-0.157096 -0.24667,-0.378961 -0.282498,-0.471287 -0.05788,-0.14745 -0.07166,-0.304549 -0.114377,-0.467155 -0.103354,-0.403765 -0.468535,-1.101055 -0.764812,-1.41938 -0.126781,-0.136426 -0.290766,-0.261828 -0.405144,-0.413413 -0.07441,-0.09922 -0.126778,-0.209462 -0.209462,-0.294898 -0.03587,-0.0372 -0.0772,-0.07028 -0.110278,-0.107484 -0.02342,-0.02618 -0.04272,-0.05512 -0.06477,-0.08544 -0.05374,-0.06752 -0.267339,-0.253559 -0.381716,-0.332105 -0.09509,-0.06339 -0.180524,-0.114377 -0.267339,-0.176388 -0.09233,-0.06477 -0.682131,-0.647679 -1.029395,-0.988057 -0.152961,-0.148826 -0.923286,-0.824064 -1.274685,-0.986673 -0.125402,-0.05788 -0.205327,-0.07166 -0.275607,0.0303 -0.09784,0.140561 -0.135047,0.387227 -0.100598,0.529167 0.01654,0.06477 0.04548,0.139181 0.06752,0.201193 0.01792,0.04823 -0.01792,0.09922 -0.07028,0.100598 -0.152961,0.0041 -0.249424,0.0248 -0.271473,0.16674 -0.01655,0.100598 -0.02205,0.195682 -0.0014,0.292146 0.02205,0.09922 0.06477,0.190168 0.0565,0.278363 -0.0041,0.03859 -0.01792,0.07717 -0.0248,0.115757 -0.0096,0.06063 -0.0028,0.125398 0.01517,0.186034 0.03721,0.122646 0.111622,0.265962 0.100598,0.325215 -0.01379,0.07028 -0.08544,0.132291 -0.115754,0.21222 -0.04961,0.132292 -0.01517,0.213597 0.06339,0.321081 0.09371,0.128157 0.163989,0.2384 0.226001,0.133671 0.0441,-0.07442 0.0028,-0.158475 -0.02893,-0.260449 -0.02067,-0.06615 0.0028,-0.07579 0.101974,-0.05788 0.0083,0.0014 1.158931,0.527787 1.209918,0.62425 0.0193,0.03858 0.0028,0.06063 -0.07579,0.110243 -0.06477,0.03996 -0.166741,0.09784 -0.166741,0.09784 0,0 -0.07441,-0.08268 -0.144695,-0.148827 l -0.02205,-0.02067 c -0.02755,-0.02618 -0.06201,-0.04272 -0.09922,-0.04961 -0.05237,-0.0096 -0.126778,-0.01517 -0.177769,-0.01242 l -0.117132,0.0055 c -0.04547,0.0028 -0.07166,0.05099 -0.04823,0.08957 0.0083,0.01242 0.0193,0.01655 0.03168,0.02205 0.115757,0.04961 0.274232,0.169499 0.475425,0.242534 0.259073,0.0937 0.621495,0.163985 0.640789,0.199814 0.01792,0.03306 -0.0041,0.08682 -0.0689,0.125401 -0.0303,0.0193 -0.183278,0.0303 -0.217727,0.01655 -0.06064,-0.02342 -0.09922,-0.07441 -0.165365,-0.0937 -0.06477,-0.0193 -0.245293,-0.0028 -0.264583,0.07166 -0.0193,0.07993 0.197058,0.107488 0.305922,0.130916 0.374826,0.07579 0.424437,0.08268 0.694531,0.241155 0.04548,0.02755 0.08957,0.05512 0.100598,0.08544 0.01655,0.05237 -0.02205,0.132291 0.0565,0.150205 0.0096,0.0014 0.0193,0.0014 0.02893,-0.0028 0.03168,-0.01101 0.06339,-0.04823 0.09922,-0.0565 0.06201,-0.01654 0.126777,0.04823 0.136426,0.07166 0.0083,0.02205 -0.05788,0.16812 -0.08957,0.195682 -0.08957,0.07993 -0.248045,0.157096 -0.248045,0.157096"
       id="path37"
       style="display:inline;stroke-width:0.352778"
       inkscape:label="bird" /></g></svg>
