<svg xmlns="http://www.w3.org/2000/svg" width="132.295" height="25" viewBox="0 0 132.295 25">
  <path fill="rgb(0,0,0)" fill-rule="evenodd" d="M20.50161362 11.50028324c1.13609695 0 2.20397567.44183064 3.00722694 1.24380303 1.65799904 1.65536212 1.65799904 4.34908199 0 6.00466632-.80325127.8021965-1.87112999 1.24380494-3.00722694 1.24380494-.83713723 0-1.63637352-.24172783-2.32079697-.68867684 0 0-2.43561172 2.34381676-2.82909965 2.73667717-.39304162.39263916-.81239033.72340012-.81239033.72340012v2.01327896h-1.75720692v-5.87222862l-2.48688602-.74677277c-.82576752 1.66515732-2.55711317 2.7727375-4.4549942 2.7727375-.48422432 0-.9659958-.07122612-1.4323845-.21123123-1.27030754-.38173294-2.31611538-1.2344551-2.94413519-2.40124512-.62801975-1.16701126-.7633438-2.50808334-.38100314-3.77659416.38836015-1.28921032 1.29862094-2.3538332 2.44430542-2.96415996 0 0-.02207088-.01780701-.04102087-.07434368-.0158286-.04674244-.2615075-.78238488-.33374-.99740124-.01114678-.03316498-.01493692-.05831719-.01605152-.06966973-.03165746.00111294-.06331468.00178147-.09497214.00178147-1.30731547 0-2.46548456-.83157635-2.88148913-2.06937027C-.098861 7.6003766-.0420115 6.7772584.31959587 6.05140973c.36138445-.72584868.98472244-1.2678423 1.75453157-1.52581788.31278371-.10483742.63849783-.15803528.96733307-.15803528h.00022293c1.30731558 0 2.4652617.83157683 2.8817122 2.06959248.43740653 1.30078506-.06197692 2.69371986-1.13208533 3.4469471.00468159.00801277.01872683.03360939.03344107.07745933.07981205.2363844.33173322.99495316.34555578 1.03635407.01426792.04384899.01337624.07300758.01337624.07300758.21313-.02871323.43517732-.0600977.65432643-.0600977.48400116 0 .96577263.07100487 1.43216134.21123314 2.31388664.6951313 3.74627018 2.93388844 3.5099554 5.2498827l2.00199318.6012001v-5.25878524c-2.86499119-.42535973-5.07030582-2.89738465-5.07030582-5.87467766C7.71181393 2.66456127 10.38061905 0 13.66072369 0c3.28055095 0 5.94935512 2.66456127 5.94935512 5.93967247 0 2.97729301-2.20531463 5.44931793-5.07075214 5.87467766v8.64429855l2.3990488-2.39523315c-.44766235-.68333435-.6895504-1.48130226-.6895504-2.31688404 0-1.13429165.44231034-2.20047284 1.2455616-3.00244522.80347252-.8019724 1.87112809-1.24380303 3.00722695-1.24380303zM9.53501034 5.93967247c0 2.27526093 1.84727382 4.11959744 4.1257124 4.11959744 2.27910804 0 4.12638282-1.84433651 4.12638282-4.11959744 0-2.27503824-1.84727478-4.11937487-4.12638283-4.11937487-2.27843857 0-4.1257124 1.84433663-4.1257124 4.11937487zm-6.91646528.20544577c-.6957934.23326873-1.07033122.98538255-.8366909 1.67984676.18637716.5546813.70404195.90502882 1.25938367.90502882.14022875 0 .28290987-.02248001.42291546-.06944561.69579315-.23304653 1.07055378-.98538303.83691406-1.67984676-.18637752-.5546813-.7040422-.90502978-1.25960684-.9048071-.14000558 0-.2826867.02225876-.42291545.06922389zm75.97683 8.14655542c-.66078949 0-1.17488861.19587421-2.4726181 1.61373901v8.87467385h-2.743042V7.07970667h2.743042v5.5252204c.66079712-.56225014 1.37107849-.95355416 2.13018799-.95355416h.83245086c2.22827912 0 4.8975296 1.17346764 4.8975296 5.13414001V24.804348h-2.71829986v-8.01883507c0-.92884636-.41622162-2.49383926-2.17922974-2.49383926h-.49002075zM31.50749588 7.71518612h6.68483353v11.24631405C38.1923294 23.63110352 35.44995499 25 33.19715118 25h-.8817215c-2.05683898 0-4.35846328-1.05126572-5.2156639-4.37623787l2.84046936-.63547897c.34288025 1.19795036.97959327 2.27370262 2.37519455 2.27370262h.8817215c1.76278304 0 2.15470886-1.93159104 2.15470886-3.17850876v-8.84996796h-3.84436417V7.71518612zm13.24726868 14.6200304c-1.7630005 0-2.13018418-1.93159103-2.13018418-3.1782875h8.15400315v-1.49131775c0-4.47395134-2.7425995-6.0142374-4.99539948-6.0142374h-.9305458c-2.27710343 0-5.01992417 1.54028606-5.01992417 6.0142374v1.2958889C39.83271408 23.45993805 42.57553482 25 44.85263824 25h1.102211c1.68920899 0 3.72174454-.92929077 4.5298996-3.74031258l-2.7180748-.63592338c-.34288025.9290657-.71006012 1.71145248-1.68943405 1.71145248h-1.32247543zm12.9779625-7.84766865c-.66101457 0-1.17533494.19565201-2.47306443 1.61351681v8.67902184H52.5172882V11.74931145h1.71395492c.29383469 0 .53839875.07322979.58766938.3176279l.22026443.85583783c.7591095-.68467045 1.54296112-1.27140332 2.35089493-1.27140332h1.9589653v2.83617401h-1.61631012zm5.90164565 1.4178648c1.29772568-1.4178648 1.81205368-1.61373901 2.47306442-1.61373901h.4897995c1.7630005 0 2.17922974 1.5649929 2.17922974 2.49383926v7.9945736h2.71829987v-7.9945736c0-3.96067237-2.6692505-5.13413906-4.8975296-5.13413906h-.832901c-.83223725 0-1.61608887.48901844-2.3749733 1.14898205l-.17144013-.68422508c-.07334518-.24462032-.29383469-.36681938-.61219025-.36681938h-1.71417999v13.03077507h2.74282074v-8.87467385zm41.11333084 5.08494759c0-.5377655-.41622162-.80664825-.661232-.879879l-3.8198471-1.07575035c-2.05706024-.58673286-2.52210998-2.39590263-2.52210998-3.15380287v-.36659718c0-2.24921798 2.08135986-3.862957 4.43202972-3.862957h.7591095c2.61997985 0 4.13819885 2.0293045 4.53012848 3.76502037l-2.8159485.61121655c-.1471405-.58673287-.58744048-1.73593712-1.7384796-1.73593712h-.832901c-.83245087 0-1.46916962.51350212-1.46916962 1.27140331 0 .6844473.56336975.85561657.73458862.90458393l3.62409973 1.00229836c2.20375061.61144066 2.64472962 2.54280853 2.64472962 3.2517395v.36682129c0 2.2979641-2.08113861 3.91147995-4.40773774 3.91147995h-1.12651062c-2.7423706 0-4.0646286-1.9558525-4.60346984-3.78928185l2.79164123-.63570213c.17144013.70893288.7591095 1.7602005 1.83635712 1.7602005h1.12651062c.78363037 0 1.51821136-.56224823 1.51821136-1.34485626zm9.13359833 1.34485626c-1.76300049 0-2.13018799-1.93159103-2.13018799-3.1782875h8.15377808v-1.49131775c0-4.47395134-2.74259186-6.0142374-4.99494934-6.0142374h-.93077088c-2.27732086 0-5.0196991 1.54028606-5.0196991 6.0142374v1.2958889c0 4.49843788 2.74237824 6.03849983 5.0196991 6.03849983h1.1017685c1.68987274 0 3.7224121-.92929077 4.5303421-3.74031258l-2.71784973-.63592338c-.34288025.9290657-.71051026 1.71145248-1.68965912 1.71145248h-1.32247162zm13.02700806-8.04354286c-.66123963 0-1.1751175.19587421-2.47284699 1.61373901v8.87467385h-2.743042V11.74931145h1.71418c.31835938 0 .53862.12219906.61219025.36681938l.17144012.68422508c.7591095-.6599636 1.54296112-1.14898205 2.37496949-1.14898205h.832901c2.22828674 0 4.89730835 1.17346669 4.89730835 5.13413906v7.9945736h-2.71829224v-7.9945736c0-.92884636-.41601563-2.49383926-2.17901611-2.49383926h-.48979187zm-36.26506806 8.04354286c-1.76322937 0-2.15493011-1.56476974-2.15493011-2.46935463v-7.99435234h-2.74237824v7.99435234C85.74593353 23.80204773 88.43948364 25 90.64324188 25h.61219025c.83267212 0 1.61608124-.48901749 2.37541199-1.17346573l.17099762.58673096c.07357025.24462128.19618988.36682129.61219024.36682129h1.71418V11.87150955h-2.74237824v8.85018921c-1.2977295 1.418087-1.81204987 1.61351776-2.4730606 1.61351776h-.26953126zM8.84991837 16.8752575c-.40976239 1.35843468-1.65822125 2.23541832-3.00967885 2.23541832-.30007648 0-.60483455-.04318237-.90713977-.13399505-1.6624577-.4994812-2.6050446-2.25010872-2.104769-3.91014576.40953923-1.35843468 1.65822149-2.23519612 3.00945592-2.23541832.30007649 0 .60505724.04318142.90713978.1337738 1.66268063.4994793 2.60504437 2.25033093 2.10499192 3.91036701zm13.36966514.58651161c-.47441482.47365952-1.09619331.71048928-1.7179699.71048928-.62133216 0-1.24288558-.2366066-1.71707725-.70960045l-.00200653-.00177956c-.94771576-.94754219-.9474926-2.48270988.0011139-3.42980766.47419166-.47366047 1.09597015-.71049023 1.71796989-.71049023.62177658 0 1.24355507.23682976 1.7179699.71049023.94882773.94732094.94882773 2.48337746 0 3.4306984zm25.71853447-.72500228c-.14691925-1.12472058-.66123962-2.44509316-2.08136368-2.44509316h-1.10198593c-1.44464874 0-1.95896911 1.32037258-2.10588455 2.44509316h5.28923416zm67.04517365-2.44509316c1.42034912 0 1.93421936 1.32037258 2.08158874 2.44509316h-5.28945923c.14691925-1.12472058.66101837-2.44509316 2.10588074-2.44509316h1.10198975z"/>
</svg>
