<?xml version="1.0" encoding="UTF-8" standalone="no"?>
<svg
    width="31.011833mm"
    height="32.512001mm"
    viewBox="0 0 31.011833 32.512001"
    version="1.1"
    id="svg1"
    xml:space="preserve"
    xmlns="http://www.w3.org/2000/svg">
        <path
            fill-rule="evenodd"
            transform="translate(211.29952,127.02012)"
            d="m -205.09239,-100.8793 6.35,-1.91029 -1.12183,2.06375 c 2.29923,1.947331 4.66725,2.468561 7.29721,1.344081 -2.4765,3.9079 -6.31032,4.35769 -9.525,2.77019 l -1.14565,2.10344 -1.85208,-6.371171 z m -0.12171,-16.7931 h 2.62732 v -0.67733 a 0.0873125,0.0873125 0 0 1 0.0873,-0.0873 h 1.2012 a 0.0873125,0.0873125 0 0 1 0.0873,0.0873 v 0.67733 h 2.64584 a 0.0873125,0.0873125 0 0 1 0.0873,0.0873 v 1.25677 a 0.08466667,0.08466667 0 0 1 -0.0873,0.0847 h -0.49212 a 5.6885417,5.6885417 0 0 1 -0.24077,1.05833 6.6145833,6.6145833 0 0 1 -0.45773,1.05834 8.4666667,8.4666667 0 0 1 -0.55034,0.86519 c -0.1905,0.26458 -0.39952,0.52916 -0.62177,0.79375 a 10.670646,10.670646 0 0 0 1.22502,1.21972 v 0 a 14.657917,14.657917 0 0 0 1.53988,1.13242 0.08466667,0.08466667 0 0 1 0.0265,0.11906 l -0.62177,0.97367 a 0.09260417,0.09260417 0 0 1 -0.12171,0.0265 16.015229,16.015229 0 0 1 -1.651,-1.21179 11.795125,11.795125 0 0 1 -1.32292,-1.29646 c -0.34131,0.32543 -0.70115,0.64293 -1.07686,0.9472 -0.42597,0.34132 -0.87047,0.67205 -1.32291,0.9869 a 0.0873125,0.0873125 0 0 1 -0.12171,-0.0212 l -0.65352,-0.94985 a 0.08202083,0.08202083 0 0 1 0.0212,-0.11906 c 0.44714,-0.30957 0.88371,-0.635 1.2991,-0.97367 0.36777,-0.29898 0.71967,-0.60854 1.04511,-0.92869 a 10.506604,10.506604 0 0 1 -0.83344,-1.48431 11.832167,11.832167 0 0 1 -0.64294,-1.75419 0.08995833,0.08995833 0 0 1 0.0609,-0.10583 l 1.1139,-0.31221 a 0.08466667,0.08466667 0 0 1 0.10583,0.0609 10.371667,10.371667 0 0 0 0.508,1.42346 9.8768958,9.8768958 0 0 0 0.61383,1.16152 c 0.14552,-0.18256 0.28311,-0.36248 0.41011,-0.54504 0.127,-0.18256 0.28046,-0.43392 0.39952,-0.65617 a 5.207,5.207 0 0 0 0.34131,-0.76994 4.9926875,4.9926875 0 0 0 0.18256,-0.71172 h -4.81012 a 0.08466667,0.08466667 0 0 1 -0.0873,-0.0847 v -1.24354 a 0.0873125,0.0873125 0 0 1 0.0873,-0.0873 z m 13.09688,1.12712 h 8.56721 a 3.2755417,3.2755417 0 0 1 3.26231,3.26496 v 6.89769 a 3.2755417,3.2755417 0 0 1 -3.26231,3.26496 h -0.26459 l -0.17462,2.61673 a 0.69320833,0.69320833 0 0 1 -1.10861,0.529161 l -4.17512,-3.143251 h -5.31019 a 3.2755417,3.2755417 0 0 1 -3.25966,-3.12737 h -3.22528 l -4.84716,3.82852 a 1.2091458,1.2091458 0 0 1 -1.94469,-1.05833 l 0.21167,-2.79136 a 3.9475833,3.9475833 0 0 1 -2.4818,-1.15094 l -0.0741,-0.0794 a 3.952875,3.952875 0 0 1 -1.09537,-2.70933 v -7.36865 a 3.96875,3.96875 0 0 1 3.96875,-3.96875 h 11.24214 a 3.9449375,3.9449375 0 0 1 2.79665,1.16152 l 0.0741,0.0767 a 3.96875,3.96875 0 0 1 1.09008,2.71992 v 1.02658 z m 8.38464,-3.89466 -6.58283,0.889 1.4314,-1.85209 c -1.96321,-2.28335 -4.23334,-3.175 -6.99294,-2.47385 3.05858,-3.47663 6.91621,-3.32052 9.85044,-1.24619 l 1.44991,-1.89706 0.82286,6.58019 z m -3.33639,11.96446 h -2.11667 l -0.39158,1.32291 h -1.90765 c 0.635,-1.68539 1.37054,-3.70416 2.00819,-5.3975 0.23019,-0.60854 0.49213,-1.61925 1.32292,-1.61925 0.83079,0 1.15358,0.92604 1.39435,1.56634 l 2.03994,5.47952 h -1.94733 l -0.40217,-1.35996 z m -0.32015,-1.29646 -0.73818,-2.32304 -0.74084,2.32304 z m -19.94164,-10.54894 h 11.24214 a 2.7596042,2.7596042 0 0 1 2.74902,2.74902 v 7.36865 a 2.7569583,2.7569583 0 0 1 -2.74902,2.76225 h -5.3975 l -5.17525,4.06664 0.30692,-4.06664 h -0.97631 a 2.7543125,2.7543125 0 0 1 -2.75696,-2.76225 v -7.36865 a 2.7569583,2.7569583 0 0 1 2.75696,-2.74902 z"
            style="stroke-width:0.264583"/>
</svg>
