<?xml version="1.0" encoding="UTF-8" standalone="no"?>
<!-- Created with Inkscape (http://www.inkscape.org/) -->

<svg
   width="661.42944mm"
   height="161.33032mm"
   viewBox="0 0 661.42944 161.33032"
   version="1.1"
   id="svg1"
   xml:space="preserve"
   xmlns="http://www.w3.org/2000/svg"
   xmlns:svg="http://www.w3.org/2000/svg"><defs
     id="defs1" /><g
     id="layer1"
     transform="translate(225.67515,-67.766092)"><path
       style="fill:#000000;fill-opacity:1;stroke-width:2.4726"
       d="m -225.67515,91.471938 h 24.70871 v 90.002682 h 45.74312 v 22.80233 h -70.45183 z"
       id="path9" /><path
       style="fill:#000000;fill-opacity:1;stroke-width:2.4726"
       d="m -132.43088,89.788096 a 13.769916,13.769916 0 1 1 -13.77239,13.769914 13.769916,13.769916 0 0 1 13.77239,-13.769914"
       id="path8" /><path
       style="fill:#000000;fill-opacity:1;stroke-width:2.4726"
       d="m -144.29937,127.79198 h 23.73697 v 76.44293 h -23.73697 z"
       id="path7" /><path
       style="fill:#000000;fill-opacity:1;stroke-width:2.4726"
       d="M -21.267685,91.45463 H 2.4692848 V 158.8701 L 29.371195,127.75736 h 29.10251 l -31.15477,35.39034 30.49953,41.11936 h -29.8344 L 2.7857848,166.48077 h -0.31155 v 37.78134 H -21.262735 Z"
       id="path6" /><path
       style="fill:#000000;fill-opacity:1;stroke-width:2.4726"
       d="m -107.40075,127.79939 h 22.794915 v 10.44674 h 0.32391 a 24.936183,24.936183 0 0 1 22.47595,-12.34817 c 24.07077,0 28.50167,15.83701 28.50167,36.41153 v 41.92048 h -23.73697 V 167.0643 c 0,-8.87169 -0.16319,-20.27533 -12.36301,-20.27533 -12.33827,0 -14.24218,9.66045 -14.24218,19.62998 v 37.80113 h -23.736975 z"
       id="path5" /><path
       style="fill:#000000;fill-opacity:1;stroke-width:2.4726"
       d="m 108.46228,157.12197 a 14.232292,14.232292 0 0 0 -14.573505,-14.56362 15.839483,15.839483 0 0 0 -16.77413,14.56362 z m 20.10719,33.87464 a 41.809213,41.809213 0 0 1 -32.460305,15.20897 c -23.73697,0 -42.74138,-15.84443 -42.74138,-40.38005 0,-24.53562 19.00194,-40.37263 42.74138,-40.37263 22.186645,0 36.099975,15.82464 36.099975,40.37263 v 7.44253 H 77.114645 a 17.731023,17.731023 0 0 0 17.88927,14.88258 20.258021,20.258021 0 0 0 16.939785,-9.34148 z"
       id="path4" /><path
       style="fill:#000000;fill-opacity:1;stroke-width:2.4726"
       d="m 181.68589,146.26972 c -11.86849,0 -18.98958,7.92469 -18.98958,19.47174 0,11.54705 7.11862,19.47915 18.98958,19.47915 11.87096,0 19.00688,-7.91232 19.00688,-19.47915 0,-11.56683 -7.12356,-19.47174 -19.00688,-19.47174 m 40.85973,57.95036 h -21.85285 v -10.13767 h -0.32391 a 29.846768,29.846768 0 0 1 -23.5985,12.03663 c -22.80728,0 -37.8308,-16.46011 -37.8308,-39.73718 0,-21.37811 13.29518,-41.00809 35.1505,-41.00809 9.82364,0 18.99947,2.68772 24.38232,10.13767 h 0.31155 V 91.447212 h 23.75922 z"
       id="path3" /><path
       style="fill:#006394;fill-opacity:1;stroke-width:2.4726"
       d="M 382.79243,204.26459 H 359.05546 V 167.0915 c 0,-8.86428 -0.15825,-20.27533 -12.3457,-20.27533 -12.363,0 -14.25454,9.65798 -14.25454,19.62998 v 37.81596 h -23.73698 v -76.44293 h 22.7875 v 10.44673 h 0.31896 a 24.973272,24.973272 0 0 1 22.48336,-12.34817 c 24.05841,0 28.49426,15.82465 28.49426,36.41153 z M 394.6263,67.777001 H 258.11399 A 11.690458,11.690458 0 0 0 246.29248,79.324048 V 216.40258 a 11.697876,11.697876 0 0 0 11.82151,11.55941 H 394.6263 a 11.722602,11.722602 0 0 0 11.86848,-11.55941 V 79.314158 A 11.715184,11.715184 0 0 0 394.6263,67.767111 M 281.93503,117.36996 a 13.774861,13.774861 0 1 1 13.77239,-13.77733 13.774861,13.774861 0 0 1 -13.77239,13.77733 m 11.86848,86.89463 h -23.76169 v -76.44541 h 23.76169 z"
       id="path2" /><path
       style="fill:#006394;fill-opacity:1;stroke-width:2.4726"
       d="m 424.72527,207.24901 a 10.923952,10.923952 0 1 0 0.21017,0 z m 0,20.59677 a 9.5788568,9.5788568 0 1 1 9.41814,-9.7371 v 0.16072 a 9.3736309,9.3736309 0 0 1 -9.1684,9.57144 h -0.24726 m 1.73082,-8.97555 a 2.9671214,2.9671214 0 0 0 2.99184,-3.13773 c 0,-2.22534 -1.34262,-3.28856 -4.0971,-3.28856 h -4.45068 v 11.6509 h 1.67395 v -5.07872 h 2.05721 l 0.047,0.0618 3.19212,5.01691 h 1.79017 l -3.43445,-5.19246 z m -1.93605,-1.16706 h -1.94099 v -3.93886 h 2.46024 c 1.27091,0 2.71986,0.2077 2.71986,1.87176 0,1.9138 -1.46626,2.0671 -3.249,2.0671"
       id="path1" /></g></svg>
