<?xml version="1.0" encoding="UTF-8" standalone="no"?>
<svg
   width="172"
   height="91"
   viewBox="0 0 172 91"
   version="1.1"
   id="svg1"
   sodipodi:docname="ncc.svg"
   inkscape:version="1.4 (86a8ad7, 2024-10-11)"
   xmlns:inkscape="http://www.inkscape.org/namespaces/inkscape"
   xmlns:sodipodi="http://sodipodi.sourceforge.net/DTD/sodipodi-0.dtd"
   xmlns:xlink="http://www.w3.org/1999/xlink"
   xmlns="http://www.w3.org/2000/svg"
   xmlns:svg="http://www.w3.org/2000/svg">
  <sodipodi:namedview
     id="namedview1"
     pagecolor="#ffffff"
     bordercolor="#000000"
     borderopacity="0.25"
     inkscape:showpageshadow="2"
     inkscape:pageopacity="0.0"
     inkscape:pagecheckerboard="0"
     inkscape:deskcolor="#d1d1d1"
     inkscape:zoom="6.3046875"
     inkscape:cx="76.688971"
     inkscape:cy="43.856258"
     inkscape:window-width="2560"
     inkscape:window-height="1009"
     inkscape:window-x="-8"
     inkscape:window-y="-8"
     inkscape:window-maximized="1"
     inkscape:current-layer="svg1"
     showguides="true" />
  <defs
     id="defs1">
    <polygon
       id="path-1"
       points="156,64 0,64 0,0 156,0 " />
  </defs>
  <g
     id="Design"
     stroke="none"
     stroke-width="1"
     fill="none"
     fill-rule="evenodd"
     transform="translate(14.889716)">
    <g
       id="sub-blocks-1"
       transform="translate(-140,-21)">
      <g
         id="Ny-Logga"
         transform="translate(140,21)">
        <mask
           id="mask-2"
           fill="#ffffff">
          <use
             xlink:href="#path-1"
             id="use1" />
        </mask>
        <g
           id="Clip-2" />
        <path
           d="m 6.1157673,29.101841 -0.3675928,1.851098 c 1.48512,0 1.8901528,0.366971 1.6547346,1.552309 0,0 -4.2363927,21.633349 -4.7473164,23.903735 C 2.27968,58.080089 2.2753309,58.4922 0.36967273,58.525629 L 0,60.388248 h 12.658313 l 0.369673,-1.862619 c -1.349164,0 -1.972597,-0.395112 -1.743041,-1.552119 l 3.166706,-15.945204 13.746531,19.359942 h 9.898909 l 5.511433,-27.883 c 0.2184,-1.100725 0.450981,-1.523978 1.750603,-1.523978 L 45.7288,29.118651 H 34.012349 l -0.369673,1.862619 c 1.130197,0 1.408538,0.508055 1.217935,1.467506 L 32.047127,46.616352 19.435331,29.101841 Z M 67.697004,28.448924 c -14.687448,-0.198879 -19.343622,5.839618 -21.185746,14.74929 -2.248102,10.873713 -0.413731,17.807634 14.344436,17.801782 4.367055,-0.0019 13.600364,-0.645366 13.600364,-0.645366 l 2.495244,-10.084811 -2.142211,3.78e-4 c -0.288175,1.51038 -2.264364,2.38314 -12.171593,2.38314 -5.871273,0 -8.45728,-0.61571 -6.271389,-9.289675 1.168771,-4.63766 2.897629,-6.587347 9.697338,-6.781693 8.675491,-0.248173 10.04432,1.154174 10.058313,2.495894 l 2.208393,0.0036 2.025163,-9.734648 c 0,0 -8.959316,-0.84783 -12.658312,-0.89788 z m 35.178656,0 c -14.687631,-0.198879 -19.343806,5.839618 -21.185929,14.74929 -2.248102,10.873713 -0.413542,17.807634 14.344436,17.801782 4.367243,-0.0019 13.600553,-0.645366 13.600553,-0.645366 l 2.49505,-10.084811 -2.14221,3.78e-4 c -0.28817,1.51038 -2.26436,2.38314 -12.171589,2.38314 -5.871273,0 -8.457091,-0.61571 -6.2712,-9.289675 1.168771,-4.63766 2.897629,-6.587347 9.697149,-6.781693 8.67568,-0.248173 10.04451,1.154174 10.0585,2.495894 l 2.2082,0.0036 2.02536,-9.734648 c 0,0 -8.95951,-0.84783 -12.65832,-0.89788 z M 126.08695,25.814967 115.51299,45.533948 156,15.699371 H 75.067956 Z m 21.26346,15.520061 -2.74597,-15.030326 -7.6614,5.661138 z M 140.03922,2 l 2.30766,12.207312 h -9.27283 z"
           id="Fill-1"
           fill="#000000"
           mask="url(#mask-2)" />
      </g>
    </g>
  </g>
</svg>
